<?xml version="1.0" encoding="UTF-8" standalone="no"?>
<svg
   xmlns:dc="http://purl.org/dc/elements/1.1/"
   xmlns:cc="http://creativecommons.org/ns#"
   xmlns:rdf="http://www.w3.org/1999/02/22-rdf-syntax-ns#"
   xmlns:svg="http://www.w3.org/2000/svg"
   xmlns="http://www.w3.org/2000/svg"
   viewBox="0 0 2616.8 386.97333"
   height="386.97333"
   width="2616.8"
   xml:space="preserve"
   id="svg2"
   version="1.1"><metadata
     id="metadata8"><rdf:RDF><cc:Work
         rdf:about=""><dc:format>image/svg+xml</dc:format><dc:type
           rdf:resource="http://purl.org/dc/dcmitype/StillImage" /></cc:Work></rdf:RDF></metadata><defs
     id="defs6" /><g
     transform="matrix(1.3333333,0,0,-1.3333333,0,386.97333)"
     id="g10"><g
       transform="scale(0.1)"
       id="g12"><path
         id="path14"
         style="fill:#8d8e8d;fill-opacity:1;fill-rule:nonzero;stroke:none"
         d="M 3399.68,469.641 V 210.488 c -0.17,-35.297 -9.67,-62.636 -28.48,-82.039 -18.81,-19.398 -45.53,-29.0974 -80.15,-29.0974 -35.12,0 -62.01,9.5784 -80.66,28.7304 -18.65,19.148 -27.97,46.949 -27.97,83.406 v 258.153 h 28.6 V 212.488 c 0,-57.699 26.68,-86.539 80.03,-86.539 52.51,0 79.11,28 79.78,84.031 v 259.661 h 28.85" /><path
         id="path16"
         style="fill:#8d8e8d;fill-opacity:1;fill-rule:nonzero;stroke:none"
         d="m 3610.16,171.262 c 0,11.679 -4.86,21.886 -14.55,30.66 -9.71,8.758 -26.14,18.359 -49.3,28.789 -23.17,10.43 -39.35,19.121 -48.55,26.07 -9.2,6.93 -15.97,14.5 -20.31,22.688 -4.35,8.203 -6.53,17.902 -6.53,29.101 0,20.91 7.53,38.18 22.58,51.809 15.05,13.633 34.53,20.453 58.45,20.453 25.76,0 46.33,-7.281 61.72,-21.832 15.38,-14.551 23.08,-33.789 23.08,-57.699 h -27.85 c 0,15.39 -5.27,28.14 -15.8,38.258 -10.54,10.121 -24.26,15.179 -41.15,15.179 -16.39,0 -29.39,-4.179 -39.01,-12.539 -9.61,-8.367 -14.42,-19.238 -14.42,-32.621 0,-10.867 3.67,-19.738 11.04,-26.59 7.35,-6.859 23.24,-16.136 47.66,-27.84 25.26,-11.046 42.65,-20.16 52.18,-27.359 9.54,-7.187 16.73,-15.168 21.58,-23.949 4.85,-8.781 7.27,-19.192 7.27,-31.231 0,-22.418 -7.77,-40.23 -23.33,-53.437 -15.55,-13.211 -36.04,-19.8204 -61.46,-19.8204 -26.93,0 -48.71,7.3594 -65.35,22.0784 -16.64,14.711 -24.97,33.699 -24.97,56.949 h 28.1 c 0.84,-16.82 6.48,-29.848 16.93,-39.078 10.46,-9.242 25.55,-13.86 45.29,-13.86 17.06,0 30.77,4.168 41.14,12.52 10.37,8.34 15.56,19.437 15.56,33.301" /><path
         id="path18"
         style="fill:#8d8e8d;fill-opacity:1;fill-rule:nonzero;stroke:none"
         d="m 3788.53,354.738 c -21.91,0 -38.76,-7.738 -50.55,-23.207 -11.79,-15.472 -18.27,-38.09 -19.44,-67.859 h 133.21 v 7.277 c -1.34,55.86 -22.41,83.789 -63.22,83.789 z m 4.77,-255.3864 c -31.95,0 -56.95,10.4494 -75.01,31.3594 -18.07,20.898 -27.26,50.68 -27.6,89.309 v 33.109 c 0,39.812 8.69,71.043 26.09,93.711 17.39,22.66 41.31,33.992 71.75,33.992 29.43,0 51.89,-9.621 67.36,-28.852 15.47,-19.242 23.37,-48.671 23.71,-88.308 v -26.09 H 3718.29 V 222.27 c 0,-31.098 6.65,-55.098 19.94,-72 13.3,-16.891 32.07,-25.329 56.32,-25.329 26.76,0 48.42,9.789 64.98,29.348 l 14.55,-18.57 c -17.73,-24.25 -44.66,-36.3674 -80.78,-36.3674" /><path
         id="path20"
         style="fill:#8d8e8d;fill-opacity:1;fill-rule:nonzero;stroke:none"
         d="m 4211.5,252.738 c 0,34.75 -5.39,60.321 -16.18,76.684 -10.79,16.379 -27.64,24.558 -50.55,24.558 -29.44,0 -50.42,-14.949 -62.97,-44.851 v -142.84 c 12.55,-27.238 33.7,-40.848 63.47,-40.848 22.41,0 39.01,8.18 49.8,24.559 10.79,16.371 16.26,41.602 16.43,75.68 z m 27.85,-25.449 c 0,-41.809 -7.27,-73.59 -21.83,-95.328 -14.55,-21.742 -36.29,-32.6094 -65.22,-32.6094 -31.45,0 -54.95,12.5394 -70.5,37.6284 V 0 h -27.6 v 375.809 h 25.6 l 1.25,-37.129 c 16.05,28.101 39.55,42.152 70.49,42.152 29.27,0 51.18,-10.371 65.73,-31.113 14.55,-20.739 21.91,-52.438 22.08,-95.078 v -27.352" /><path
         id="path22"
         style="fill:#8d8e8d;fill-opacity:1;fill-rule:nonzero;stroke:none"
         d="m 4410.44,349.719 c -6.69,1.172 -12.54,1.75 -17.56,1.75 -15.39,0 -28.31,-5.258 -38.76,-15.797 -10.45,-10.531 -17.86,-25.172 -22.2,-43.902 V 104.359 h -27.85 v 271.45 h 27.35 l 0.5,-40.637 c 13.21,30.43 33.95,45.66 62.22,45.66 7.35,0 12.95,-1.094 16.8,-3.262 l -0.5,-27.851" /><path
         id="path24"
         style="fill:#8d8e8d;fill-opacity:1;fill-rule:nonzero;stroke:none"
         d="m 4471.91,225.93 c 0,-31.239 6.31,-55.801 18.94,-73.668 12.62,-17.891 30.14,-26.821 52.56,-26.821 22.91,0 40.43,8.598 52.55,25.809 12.13,17.211 18.27,41.852 18.44,73.93 v 28.808 c 0,31.242 -6.35,55.844 -19.06,73.801 -12.72,17.973 -30.19,26.949 -52.43,26.949 -21.58,0 -38.73,-8.769 -51.44,-26.308 -12.71,-17.551 -19.23,-41.68 -19.56,-72.418 z m -28.1,27.961 c 0,39.14 8.86,70.07 26.59,92.82 17.73,22.738 41.9,34.121 72.51,34.121 30.77,0 54.98,-11.211 72.62,-33.613 17.64,-22.43 26.55,-53.278 26.72,-92.578 v -28.852 c 0,-39.797 -8.91,-70.828 -26.72,-93.078 -17.81,-22.242 -41.85,-33.3594 -72.12,-33.3594 -30.28,0 -54.28,10.8674 -72,32.6094 -17.73,21.738 -26.93,51.68 -27.6,89.82 v 32.11" /><path
         id="path26"
         style="fill:#8d8e8d;fill-opacity:1;fill-rule:nonzero;stroke:none"
         d="m 4732.06,375.809 0.75,-40.637 c 16.89,30.43 41.15,45.66 72.76,45.66 34.95,0 57.53,-16.641 67.73,-49.922 8.53,16.551 19.53,29.012 32.99,37.371 13.46,8.367 28.14,12.551 44.03,12.551 48.83,0 73.84,-31.453 75.01,-94.332 V 104.359 h -27.85 V 284.75 c -0.34,23.398 -4.68,40.852 -13.04,52.301 -8.37,11.461 -22.08,17.187 -41.14,17.187 -17.24,-0.34 -31.79,-7.019 -43.66,-20.066 C 4887.76,321.121 4880.99,304.73 4879.32,285 V 104.359 h -28.09 v 179.629 c 0,23.75 -4.4,41.403 -13.18,52.934 -8.78,11.547 -22.45,17.316 -41.01,17.316 -15.22,0 -28.4,-5.277 -39.52,-15.808 -11.12,-10.539 -19.19,-25.59 -24.2,-45.16 V 104.359 h -27.85 v 271.45 h 26.59" /><path
         id="path28"
         style="fill:#8d8e8d;fill-opacity:1;fill-rule:nonzero;stroke:none"
         d="m 5115.65,225.93 c 0,-31.239 6.31,-55.801 18.94,-73.668 12.62,-17.891 30.14,-26.821 52.56,-26.821 22.91,0 40.43,8.598 52.55,25.809 12.13,17.211 18.27,41.852 18.44,73.93 v 28.808 c 0,31.242 -6.35,55.844 -19.06,73.801 -12.72,17.973 -30.19,26.949 -52.43,26.949 -21.58,0 -38.73,-8.769 -51.43,-26.308 -12.71,-17.551 -19.24,-41.68 -19.57,-72.418 z m -28.1,27.961 c 0,39.14 8.86,70.07 26.59,92.82 17.73,22.738 41.9,34.121 72.51,34.121 30.77,0 54.98,-11.211 72.62,-33.613 17.64,-22.43 26.55,-53.278 26.72,-92.578 v -28.852 c 0,-39.797 -8.9,-70.828 -26.72,-93.078 -17.81,-22.242 -41.85,-33.3594 -72.12,-33.3594 -30.27,0 -54.28,10.8674 -72,32.6094 -17.73,21.738 -26.93,51.68 -27.6,89.82 v 32.11" /><path
         id="path30"
         style="fill:#8d8e8d;fill-opacity:1;fill-rule:nonzero;stroke:none"
         d="m 5551.42,125.441 c 19.4,0 34.28,5.411 44.65,16.239 10.37,10.832 15.97,26.41 16.81,46.73 h 26.84 c -1.34,-27.769 -10.2,-49.539 -26.59,-65.351 -16.4,-15.797 -36.97,-23.7074 -61.71,-23.7074 -32.28,0 -56.66,10.3284 -73.13,30.9804 -16.48,20.66 -24.89,51.309 -25.22,91.938 v 33.121 c 0,41.468 8.24,72.75 24.71,93.828 16.47,21.07 40.94,31.613 73.38,31.613 26.93,0 48.17,-8.492 63.72,-25.473 15.56,-16.968 23.84,-40.679 24.84,-71.109 h -26.84 c -0.84,22.398 -6.52,39.75 -17.06,52.051 -10.54,12.289 -25.42,18.437 -44.66,18.437 -24.08,0 -41.77,-8.097 -53.05,-24.308 -11.29,-16.2 -16.94,-41.09 -16.94,-74.68 v -30.82 c 0,-34.75 5.69,-60.02 17.06,-75.809 11.37,-15.793 29.1,-23.68 53.19,-23.68" /><path
         id="path32"
         style="fill:#8d8e8d;fill-opacity:1;fill-rule:nonzero;stroke:none"
         d="m 5716.24,225.93 c 0,-31.239 6.3,-55.801 18.94,-73.668 12.62,-17.891 30.14,-26.821 52.55,-26.821 22.91,0 40.43,8.598 52.56,25.809 12.12,17.211 18.27,41.852 18.44,73.93 v 28.808 c 0,31.242 -6.36,55.844 -19.07,73.801 -12.71,17.973 -30.19,26.949 -52.43,26.949 -21.58,0 -38.72,-8.769 -51.43,-26.308 -12.71,-17.551 -19.23,-41.68 -19.56,-72.418 z m -28.1,27.961 c 0,39.14 8.86,70.07 26.59,92.82 17.73,22.738 41.9,34.121 72.5,34.121 30.77,0 54.98,-11.211 72.63,-33.613 17.64,-22.43 26.55,-53.278 26.72,-92.578 v -28.852 c 0,-39.797 -8.91,-70.828 -26.72,-93.078 -17.81,-22.242 -41.86,-33.3594 -72.13,-33.3594 -30.27,0 -54.27,10.8674 -72,32.6094 -17.73,21.738 -26.93,51.68 -27.59,89.82 v 32.11" /><path
         id="path34"
         style="fill:#8d8e8d;fill-opacity:1;fill-rule:nonzero;stroke:none"
         d="m 5969.12,227.289 c 0,-34.777 5.22,-60.379 15.68,-76.758 10.44,-16.402 27.05,-24.582 49.8,-24.582 29.26,0 50.5,13.949 63.72,41.891 v 140.73 c -12.55,30.282 -33.71,45.41 -63.48,45.41 -22.74,0 -39.34,-8.109 -49.8,-24.332 -10.45,-16.218 -15.76,-41.308 -15.92,-75.269 z m -28.35,25.352 c 0,42.48 7.44,74.461 22.33,95.949 14.88,21.492 36.95,32.242 66.23,32.242 30.77,0 53.77,-13.801 68.99,-41.402 v 150.281 h 27.84 V 104.359 h -26.09 l -1.25,34.879 c -15.23,-26.59 -38.47,-39.8864 -69.75,-39.8864 -28.6,0 -50.38,10.8674 -65.35,32.6094 -14.97,21.738 -22.62,52.598 -22.95,92.57 v 28.11" /><path
         id="path36"
         style="fill:#8d8e8d;fill-opacity:1;fill-rule:nonzero;stroke:none"
         d="m 6286.22,354.738 c -21.91,0 -38.76,-7.738 -50.55,-23.207 -11.79,-15.472 -18.27,-38.09 -19.44,-67.859 h 133.21 v 7.277 c -1.34,55.86 -22.41,83.789 -63.22,83.789 z m 4.77,-255.3864 c -31.95,0 -56.95,10.4494 -75.01,31.3594 -18.06,20.898 -27.26,50.68 -27.6,89.309 v 33.109 c 0,39.812 8.7,71.043 26.09,93.711 17.4,22.66 41.31,33.992 71.75,33.992 29.43,0 51.89,-9.621 67.36,-28.852 15.47,-19.242 23.37,-48.671 23.71,-88.308 v -26.09 H 6215.98 V 222.27 c 0,-31.098 6.65,-55.098 19.94,-72 13.3,-16.891 32.07,-25.329 56.32,-25.329 26.76,0 48.42,9.789 64.98,29.348 l 14.55,-18.57 c -17.73,-24.25 -44.66,-36.3674 -80.78,-36.3674" /><path
         id="path38"
         style="fill:#8d8e8d;fill-opacity:1;fill-rule:nonzero;stroke:none"
         d="m 6432.72,353.98 c 0,6.032 1.89,11.09 5.65,15.18 3.76,4.102 8.99,6.149 15.68,6.149 6.69,0 11.96,-2.047 15.8,-6.149 3.85,-4.09 5.78,-9.148 5.78,-15.18 0,-5.859 -1.93,-10.699 -5.78,-14.55 -3.84,-3.84 -9.11,-5.77 -15.8,-5.77 -6.69,0 -11.92,1.93 -15.68,5.77 -3.76,3.851 -5.65,8.691 -5.65,14.55 z m -0.49,-231.3 c 0,6.019 1.88,11.082 5.64,15.179 3.76,4.09 8.99,6.141 15.68,6.141 6.68,0 11.95,-2.051 15.81,-6.141 3.84,-4.097 5.76,-9.16 5.76,-15.179 0,-5.848 -1.92,-10.711 -5.76,-14.551 -3.86,-3.84 -9.13,-5.77 -15.81,-5.77 -6.69,0 -11.92,1.93 -15.68,5.77 -3.76,3.84 -5.64,8.703 -5.64,14.551" /><path
         id="path40"
         style="fill:#3479ae;fill-opacity:1;fill-rule:nonzero;stroke:none"
         d="m 6732.51,348.93 h 94.52 c 27.36,0 48.33,8.211 62.91,24.601 14.58,16.399 21.87,39.879 21.87,70.438 0,29.429 -7.52,53.011 -22.54,70.769 -15.03,17.742 -35.66,26.621 -61.9,26.621 h -94.86 z m 0,-52.809 V 104.359 h -61.57 V 594.18 h 156.09 c 45.53,0 81.3,-13.629 107.32,-40.879 26.01,-27.25 39.02,-63.531 39.02,-108.832 0,-47.098 -12.39,-83.379 -37.17,-108.828 -24.79,-25.45 -59.72,-38.629 -104.79,-39.52 h -98.9" /><path
         id="path42"
         style="fill:#3479ae;fill-opacity:1;fill-rule:nonzero;stroke:none"
         d="M 7356.47,330.77 H 7183.22 V 157.191 h 201.84 v -52.832 h -263.4 V 594.18 h 260.03 V 541.359 H 7183.22 V 383.582 h 173.25 V 330.77" /><path
         id="path44"
         style="fill:#3479ae;fill-opacity:1;fill-rule:nonzero;stroke:none"
         d="m 7594.58,355.32 h 74.68 c 25.79,0 46.37,8.309 61.73,24.942 15.36,16.617 23.04,38.867 23.04,66.738 0,62.898 -28.48,94.359 -85.44,94.359 h -74.01 z m 86.12,-52.808 h -86.12 V 104.359 h -61.9 V 594.18 h 137.25 c 48,0 84.32,-12.508 109,-37.508 24.67,-25.012 37,-61.621 37,-109.84 0,-30.281 -6.67,-56.684 -20.01,-79.223 -13.35,-22.539 -32.24,-39.527 -56.69,-50.968 L 7834.1,108.41 v -4.051 h -66.27 l -87.13,198.153" /><path
         id="path46"
         style="fill:#3479ae;fill-opacity:1;fill-rule:nonzero;stroke:none"
         d="M 8194.32,320.672 H 8028.81 V 104.359 h -61.56 V 594.18 h 255 V 541.359 H 8028.81 V 373.5 h 165.51 v -52.828" /><path
         id="path48"
         style="fill:#3479ae;fill-opacity:1;fill-rule:nonzero;stroke:none"
         d="M 8601.98,330.77 H 8428.73 V 157.191 h 201.84 v -52.832 h -263.4 V 594.18 h 260.04 V 541.359 H 8428.73 V 383.582 h 173.25 V 330.77" /><path
         id="path50"
         style="fill:#3479ae;fill-opacity:1;fill-rule:nonzero;stroke:none"
         d="m 9085.33,260.129 c -2.69,-52.481 -17.44,-92.688 -44.24,-120.609 -26.8,-27.918 -64.65,-41.8794 -113.54,-41.8794 -49.11,0 -88.14,18.6684 -117.07,56.0074 -28.93,37.352 -43.39,87.973 -43.39,151.891 v 88.813 c 0,63.687 14.85,114.039 44.57,151.046 29.71,37 70.25,55.5 121.61,55.5 47.32,0 83.93,-14.117 109.84,-42.378 25.9,-28.27 39.97,-68.75 42.22,-121.45 h -62.24 c -2.69,39.918 -11.1,68.41 -25.23,85.45 -14.13,17.039 -35.66,25.57 -64.59,25.57 -33.42,0 -59.09,-13.07 -77.03,-39.192 -17.95,-26.136 -26.92,-64.429 -26.92,-114.886 v -89.821 c 0,-49.562 8.35,-87.582 25.07,-114.043 16.7,-26.468 41.09,-39.687 73.16,-39.687 32.07,0 55.17,7.961 69.3,23.879 14.13,15.922 22.88,44.519 26.24,85.789 h 62.24" /><path
         id="path52"
         style="fill:#3479ae;fill-opacity:1;fill-rule:nonzero;stroke:none"
         d="m 9514.18,541.359 h -128.85 v -437 h -61.56 v 437 h -128.51 v 52.821 h 318.92 v -52.821" /><path
         id="path54"
         style="fill:#3479ae;fill-opacity:1;fill-rule:nonzero;stroke:none"
         d="M 9882.47,320.672 H 9716.96 V 104.359 H 9655.4 V 594.18 h 254.99 V 541.359 H 9716.96 V 373.5 h 165.51 v -52.828" /><path
         id="path56"
         style="fill:#3479ae;fill-opacity:1;fill-rule:nonzero;stroke:none"
         d="M 10119.6,104.359 H 10058 V 594.18 h 61.6 V 104.359" /><path
         id="path58"
         style="fill:#3479ae;fill-opacity:1;fill-rule:nonzero;stroke:none"
         d="m 10582.7,541.359 h -128.8 v -437 h -61.6 v 437 h -128.5 v 52.821 h 318.9 v -52.821" /><path
         id="path60"
         style="fill:#8d8e8d;fill-opacity:1;fill-rule:nonzero;stroke:none"
         d="m 336.477,1145.3 c 0,-21.91 4.296,-39.13 12.894,-51.66 8.59,-12.53 20.172,-18.8 34.734,-18.8 30.708,0 46.52,22.18 47.438,66.53 v 24.01 c 0,21.79 -4.332,39 -12.992,51.67 -8.656,12.66 -20.27,18.99 -34.836,18.99 -14.305,0 -25.754,-6.33 -34.344,-18.99 -8.598,-12.67 -12.894,-29.82 -12.894,-51.47 z m -34.84,20.08 c 0,30.97 7.508,55.47 22.539,73.52 15.023,18.03 34.867,27.06 59.539,27.06 24.668,0 44.512,-8.79 59.539,-26.37 15.023,-17.59 22.73,-41.53 23.129,-71.85 v -22.44 c 0,-30.83 -7.481,-55.23 -22.442,-73.21 -14.957,-17.98 -34.902,-26.96 -59.836,-26.96 -24.667,0 -44.449,8.72 -59.339,26.17 -14.895,17.45 -22.61,41.07 -23.129,70.86 v 23.22" /><path
         id="path62"
         style="fill:#8d8e8d;fill-opacity:1;fill-rule:nonzero;stroke:none"
         d="m 659.703,1229.35 c -4.855,0.91 -10.101,1.38 -15.742,1.38 -17.848,0 -30.313,-9.77 -37.398,-29.32 v -152.35 h -34.84 v 212.96 h 33.851 l 0.594,-21.65 c 9.316,17.06 22.504,25.59 39.559,25.59 5.511,0 10.101,-0.92 13.781,-2.76 l 0.195,-33.85" /><path
         id="path64"
         style="fill:#8d8e8d;fill-opacity:1;fill-rule:nonzero;stroke:none"
         d="m 1024.1,1122.98 c 0,11.91 -3.28,21.96 -9.84,30.14 -6.56,8.19 -17.842,15.76 -33.854,22.69 -23.488,8.54 -40.609,19.66 -51.367,33.37 -10.762,13.71 -16.144,31.12 -16.144,52.25 0,21.52 5.214,39.08 15.652,52.65 10.43,13.59 24.633,21.82 42.609,24.71 v 43.3 h 27.754 v -43.5 c 18.37,-3.28 32.57,-12.63 42.61,-28.04 10.04,-15.43 15.06,-36.46 15.06,-63.09 h -34.45 c 0,18.23 -3.34,32.87 -10.04,43.89 -6.68,11.02 -15.867,16.53 -27.547,16.53 -11.684,0 -20.77,-4 -27.262,-12 -6.496,-8.01 -9.742,-19.29 -9.742,-33.86 0,-13.25 3.508,-23.85 10.527,-31.79 7.024,-7.94 18.473,-15.25 34.344,-21.94 23.75,-8.93 40.78,-20.05 51.08,-33.36 10.3,-13.32 15.45,-30.55 15.45,-51.67 0,-21.52 -5.51,-39.1 -16.53,-52.74 -11.02,-13.66 -26.84,-21.86 -47.437,-24.61 v -37.79 h -27.36 v 37.79 c -20.734,3.02 -36.605,12.07 -47.633,27.17 -11.019,15.08 -16.535,35.22 -16.535,60.42 h 34.645 c 0,-18.18 3.672,-32.17 11.019,-41.98 7.352,-9.8 17.715,-14.7 31.102,-14.7 13.644,0 24.379,4.08 32.179,12.27 7.81,8.18 11.71,19.47 11.71,33.89" /><path
         id="path66"
         style="fill:#8d8e8d;fill-opacity:1;fill-rule:nonzero;stroke:none"
         d="m 1178.26,1192.74 12.39,142.89 h 124.59 v -33.65 h -95.26 l -6.69,-78.14 c 11.81,8.27 24.54,12.4 38.18,12.4 22.31,0 39.83,-8.66 52.55,-25.98 12.73,-17.32 19.1,-40.61 19.1,-69.87 0,-29.66 -6.92,-52.95 -20.77,-69.87 -13.84,-16.94 -32.84,-25.39 -56.98,-25.39 -21.52,0 -39.04,7.01 -52.55,21.05 -13.52,14.04 -21.26,33.47 -23.23,58.26 h 32.68 c 1.96,-16.4 6.66,-28.77 14.07,-37.1 7.41,-8.34 17.09,-12.5 29.03,-12.5 13.52,0 24.08,5.87 31.69,17.62 7.61,11.74 11.42,27.59 11.42,47.53 0,18.77 -4.1,34.05 -12.3,45.86 -8.21,11.82 -19.26,17.71 -33.17,17.71 -11.55,0 -20.8,-3.01 -27.75,-9.05 l -9.25,-9.25 -27.75,7.48" /><path
         id="path68"
         style="fill:#8d8e8d;fill-opacity:1;fill-rule:nonzero;stroke:none"
         d="m 1541.83,1221.08 c 0,30.32 -3.34,52.66 -10.03,67.02 -6.7,14.37 -17.4,21.56 -32.09,21.56 -14.3,0 -24.8,-7.06 -31.49,-21.16 -6.69,-14.11 -10.17,-35.4 -10.43,-63.87 v -59.05 c 0,-30.18 3.47,-52.85 10.43,-68 6.96,-15.16 17.58,-22.74 31.89,-22.74 14.17,0 24.6,7.15 31.29,21.46 6.7,14.3 10.17,36.14 10.43,65.54 z m 34.84,-49.79 c 0,-42.26 -6.17,-73.85 -18.5,-94.78 -12.33,-20.92 -31.69,-31.38 -58.06,-31.38 -25.59,0 -44.69,10.04 -57.28,30.1 -12.6,20.08 -19.16,50.26 -19.68,90.55 v 49.2 c 0,41.86 6.2,73.09 18.6,93.69 12.4,20.6 31.72,30.9 57.96,30.9 25.85,0 44.98,-9.78 57.38,-29.33 12.4,-19.55 18.92,-49.14 19.58,-88.77 v -50.18" /><path
         id="path70"
         style="fill:#8d8e8d;fill-opacity:1;fill-rule:nonzero;stroke:none"
         d="m 1854.07,1049.06 v 184.82 h -27.75 v 28.14 h 27.75 v 24.61 c 0.4,21.65 5.87,38.55 16.44,50.68 10.56,12.13 25.49,18.21 44.77,18.21 6.96,0 13.98,-1.12 21.07,-3.33 l -1.77,-29.35 c -4.99,1.18 -10.31,1.78 -15.95,1.78 -19.81,0 -29.72,-14.15 -29.72,-42.45 v -20.15 h 36.41 v -28.14 h -36.41 v -184.82 h -34.84" /><path
         id="path72"
         style="fill:#8d8e8d;fill-opacity:1;fill-rule:nonzero;stroke:none"
         d="m 2054.28,1145.3 c 0,-21.91 4.3,-39.13 12.9,-51.66 8.59,-12.53 20.17,-18.8 34.73,-18.8 30.71,0 46.52,22.18 47.44,66.53 v 24.01 c 0,21.79 -4.33,39 -12.99,51.67 -8.66,12.66 -20.27,18.99 -34.84,18.99 -14.3,0 -25.75,-6.33 -34.34,-18.99 -8.6,-12.67 -12.9,-29.82 -12.9,-51.47 z m -34.84,20.08 c 0,30.97 7.51,55.47 22.54,73.52 15.03,18.03 34.87,27.06 59.54,27.06 24.67,0 44.52,-8.79 59.54,-26.37 15.02,-17.59 22.73,-41.53 23.13,-71.85 v -22.44 c 0,-30.83 -7.48,-55.23 -22.44,-73.21 -14.96,-17.98 -34.9,-26.96 -59.84,-26.96 -24.66,0 -44.44,8.72 -59.34,26.17 -14.89,17.45 -22.6,41.07 -23.13,70.86 v 23.22" /><path
         id="path74"
         style="fill:#8d8e8d;fill-opacity:1;fill-rule:nonzero;stroke:none"
         d="m 2377.51,1229.35 c -4.85,0.91 -10.1,1.38 -15.74,1.38 -17.85,0 -30.31,-9.77 -37.4,-29.32 v -152.35 h -34.84 v 212.96 h 33.85 l 0.59,-21.65 c 9.32,17.06 22.51,25.59 39.57,25.59 5.51,0 10.1,-0.92 13.77,-2.76 l 0.2,-33.85" /><path
         id="path76"
         style="fill:#8d8e8d;fill-opacity:1;fill-rule:nonzero;stroke:none"
         d="m 2688.57,1076.82 c 8.53,0 16.66,2.35 24.41,7.08 7.74,4.72 13.38,10.63 16.92,17.71 v 50.78 h -19.68 c -16.53,-0.26 -29.59,-3.97 -39.17,-11.12 -9.58,-7.15 -14.37,-17.16 -14.37,-30.01 0,-12.08 2.43,-20.84 7.29,-26.28 4.85,-5.45 13.05,-8.16 24.6,-8.16 z m 46.45,-27.76 c -2.1,4.59 -3.61,12.34 -4.53,23.22 -12.33,-18.1 -28.08,-27.15 -47.23,-27.15 -19.29,0 -34.35,5.41 -45.17,16.23 -10.83,10.83 -16.24,26.08 -16.24,45.76 0,21.65 7.34,38.85 22.04,51.57 14.69,12.73 34.84,19.22 60.43,19.48 h 25.58 v 22.64 c 0,12.72 -2.82,21.78 -8.46,27.17 -5.64,5.37 -14.24,8.06 -25.79,8.06 -10.49,0 -19.02,-3.11 -25.58,-9.34 -6.56,-6.24 -9.84,-14.14 -9.84,-23.72 h -34.84 c 0,10.89 3.21,21.29 9.64,31.19 6.43,9.91 15.09,17.68 25.99,23.33 10.88,5.63 23.02,8.46 36.41,8.46 21.78,0 38.35,-5.41 49.69,-16.23 11.36,-10.83 17.16,-26.62 17.43,-47.35 v -107.46 c 0.12,-16.4 2.36,-30.64 6.69,-42.71 v -3.15 h -36.22" /><path
         id="path78"
         style="fill:#8d8e8d;fill-opacity:1;fill-rule:nonzero;stroke:none"
         d="m 2916.53,1049.06 h -34.84 v 302.33 h 34.84 v -302.33" /><path
         id="path80"
         style="fill:#8d8e8d;fill-opacity:1;fill-rule:nonzero;stroke:none"
         d="m 3069.31,1049.06 h -34.84 v 302.33 h 34.84 v -302.33" /><path
         id="path82"
         style="fill:#8d8e8d;fill-opacity:1;fill-rule:nonzero;stroke:none"
         d="m 3364.82,1145.3 c 0,-21.91 4.3,-39.13 12.9,-51.66 8.59,-12.53 20.17,-18.8 34.74,-18.8 30.7,0 46.51,22.18 47.43,66.53 v 24.01 c 0,21.79 -4.33,39 -12.99,51.67 -8.66,12.66 -20.27,18.99 -34.83,18.99 -14.31,0 -25.76,-6.33 -34.35,-18.99 -8.6,-12.67 -12.9,-29.82 -12.9,-51.47 z m -34.83,20.08 c 0,30.97 7.51,55.47 22.53,73.52 15.03,18.03 34.87,27.06 59.55,27.06 24.66,0 44.51,-8.79 59.53,-26.37 15.03,-17.59 22.74,-41.53 23.13,-71.85 v -22.44 c 0,-30.83 -7.48,-55.23 -22.44,-73.21 -14.96,-17.98 -34.9,-26.96 -59.83,-26.96 -24.67,0 -44.45,8.72 -59.34,26.17 -14.9,17.45 -22.61,41.07 -23.13,70.86 v 23.22" /><path
         id="path84"
         style="fill:#8d8e8d;fill-opacity:1;fill-rule:nonzero;stroke:none"
         d="m 3645.73,1313.59 v -51.57 h 32.08 v -28.14 h -32.08 v -132.24 c 0,-8.41 1.38,-14.78 4.13,-19.11 2.76,-4.34 7.48,-6.51 14.18,-6.51 4.59,0 9.25,0.8 13.97,2.37 l -0.39,-29.36 c -7.87,-2.6 -15.95,-3.9 -24.21,-3.9 -13.78,0 -24.28,4.92 -31.5,14.75 -7.21,9.85 -10.82,23.75 -10.82,41.73 v 132.27 h -32.48 v 28.14 h 32.48 v 51.57 h 34.64" /><path
         id="path86"
         style="fill:#8d8e8d;fill-opacity:1;fill-rule:nonzero;stroke:none"
         d="m 3814.45,1240.18 c 13.26,17.18 30.18,25.78 50.78,25.78 37.66,0 56.75,-25.13 57.28,-75.38 v -141.52 h -34.64 V 1189 c 0,16.66 -2.79,28.51 -8.37,35.53 -5.57,7.01 -13.94,10.53 -25.09,10.53 -8.66,0 -16.44,-2.89 -23.33,-8.66 -6.89,-5.78 -12.43,-13.32 -16.63,-22.64 v -154.7 h -34.84 v 302.33 h 34.84 v -111.21" /><path
         id="path88"
         style="fill:#8d8e8d;fill-opacity:1;fill-rule:nonzero;stroke:none"
         d="m 4106.97,1236.04 c -14.44,0 -25.13,-4.95 -32.08,-14.86 -6.96,-9.9 -10.9,-25.29 -11.81,-46.15 h 83.84 v 4.73 c -0.91,20.2 -4.56,34.63 -10.92,43.3 -6.37,8.65 -16.04,12.98 -29.03,12.98 z m 3.94,-190.91 c -26.51,0 -46.85,7.9 -61.02,23.71 -14.17,15.81 -21.39,39 -21.65,69.58 v 25.78 c 0,31.76 6.92,56.65 20.76,74.7 13.85,18.03 33.17,27.06 57.97,27.06 24.93,0 43.56,-7.94 55.9,-23.81 12.33,-15.88 18.63,-40.62 18.89,-74.21 v -22.83 h -118.88 v -4.93 c 0,-22.83 4.3,-39.42 12.89,-49.79 8.6,-10.36 20.96,-15.55 37.11,-15.55 10.23,0 19.25,1.94 27.06,5.81 7.8,3.87 15.12,10 21.94,18.4 l 18.11,-22.04 c -15.09,-21.26 -38.11,-31.88 -69.08,-31.88" /><path
         id="path90"
         style="fill:#8d8e8d;fill-opacity:1;fill-rule:nonzero;stroke:none"
         d="m 4371.93,1229.35 c -4.85,0.91 -10.1,1.38 -15.74,1.38 -17.85,0 -30.31,-9.77 -37.4,-29.32 v -152.35 h -34.83 v 212.96 h 33.85 l 0.59,-21.65 c 9.32,17.06 22.5,25.59 39.56,25.59 5.51,0 10.1,-0.92 13.78,-2.76 l 0.19,-33.85" /><path
         id="path92"
         style="fill:#8d8e8d;fill-opacity:1;fill-rule:nonzero;stroke:none"
         d="m 4635.17,1049.06 v 184.82 h -27.75 v 28.14 h 27.75 v 24.61 c 0.4,21.65 5.87,38.55 16.44,50.68 10.56,12.13 25.48,18.21 44.77,18.21 6.96,0 13.98,-1.12 21.07,-3.33 l -1.78,-29.35 c -4.99,1.18 -10.3,1.78 -15.94,1.78 -19.81,0 -29.72,-14.15 -29.72,-42.45 v -20.15 h 36.41 v -28.14 h -36.41 v -184.82 h -34.84" /><path
         id="path94"
         style="fill:#8d8e8d;fill-opacity:1;fill-rule:nonzero;stroke:none"
         d="m 4845.42,1049.06 h -34.84 v 212.96 h 34.84 z m 2.75,269.46 c 0,-5.91 -1.64,-10.84 -4.91,-14.77 -3.28,-3.94 -8.27,-5.9 -14.96,-5.9 -6.57,0 -11.49,1.96 -14.76,5.9 -3.29,3.93 -4.93,8.86 -4.93,14.77 0,5.89 1.64,10.88 4.93,14.96 3.27,4.06 8.19,6.09 14.76,6.09 6.56,0 11.51,-2.06 14.85,-6.2 3.35,-4.13 5.02,-9.08 5.02,-14.85" /><path
         id="path96"
         style="fill:#8d8e8d;fill-opacity:1;fill-rule:nonzero;stroke:none"
         d="m 5006.26,1313.59 v -51.57 h 32.08 v -28.14 h -32.08 v -132.24 c 0,-8.41 1.38,-14.78 4.14,-19.11 2.75,-4.34 7.48,-6.51 14.17,-6.51 4.59,0 9.25,0.8 13.98,2.37 l -0.4,-29.36 c -7.87,-2.6 -15.94,-3.9 -24.21,-3.9 -13.78,0 -24.28,4.92 -31.49,14.75 -7.22,9.85 -10.83,23.75 -10.83,41.73 v 132.27 h -32.47 v 28.14 h 32.47 v 51.57 h 34.64" /><path
         id="path98"
         style="fill:#8d8e8d;fill-opacity:1;fill-rule:nonzero;stroke:none"
         d="m 5185.81,1313.59 v -51.57 h 32.08 v -28.14 h -32.08 v -132.24 c 0,-8.41 1.38,-14.78 4.13,-19.11 2.76,-4.34 7.48,-6.51 14.18,-6.51 4.59,0 9.24,0.8 13.97,2.37 l -0.39,-29.36 c -7.88,-2.6 -15.95,-3.9 -24.21,-3.9 -13.78,0 -24.28,4.92 -31.5,14.75 -7.21,9.85 -10.82,23.75 -10.82,41.73 v 132.27 h -32.48 v 28.14 h 32.48 v 51.57 h 34.64" /><path
         id="path100"
         style="fill:#8d8e8d;fill-opacity:1;fill-rule:nonzero;stroke:none"
         d="m 5357.28,1049.06 h -34.84 v 212.96 h 34.84 z m 2.75,269.46 c 0,-5.91 -1.64,-10.84 -4.91,-14.77 -3.28,-3.94 -8.27,-5.9 -14.96,-5.9 -6.57,0 -11.49,1.96 -14.76,5.9 -3.29,3.93 -4.93,8.86 -4.93,14.77 0,5.89 1.64,10.88 4.93,14.96 3.27,4.06 8.19,6.09 14.76,6.09 6.56,0 11.51,-2.06 14.85,-6.2 3.35,-4.13 5.02,-9.08 5.02,-14.85" /><path
         id="path102"
         style="fill:#8d8e8d;fill-opacity:1;fill-rule:nonzero;stroke:none"
         d="m 5505.34,1262.02 0.98,-23.03 c 13.51,17.98 30.77,26.97 51.77,26.97 37.65,0 56.74,-25.13 57.27,-75.38 v -141.52 h -34.64 V 1189 c 0,16.66 -2.79,28.51 -8.37,35.53 -5.57,7.01 -13.94,10.53 -25.09,10.53 -8.66,0 -16.43,-2.89 -23.32,-8.66 -6.89,-5.78 -12.44,-13.32 -16.63,-22.64 v -154.7 h -34.84 v 212.96 h 32.87" /><path
         id="path104"
         style="fill:#8d8e8d;fill-opacity:1;fill-rule:nonzero;stroke:none"
         d="m 5755.93,1145.42 c 0,-23.86 3.51,-41.39 10.53,-52.59 7.02,-11.21 18.54,-16.81 34.55,-16.81 17.32,0 30.31,8.85 38.97,26.54 v 106.36 c -9.06,17.43 -21.92,26.14 -38.58,26.14 -16.01,0 -27.56,-5.61 -34.64,-16.81 -7.09,-11.2 -10.7,-28.41 -10.83,-51.6 z m -34.84,19.76 c 0,33.2 6.04,58.3 18.11,75.29 12.07,16.99 29.72,25.49 52.95,25.49 21.65,0 38.11,-9.25 49.4,-27.75 l 1.77,23.81 h 31.49 v -214.93 c 0,-26.38 -6.75,-46.61 -20.27,-60.719 -13.51,-14.101 -32.35,-21.16 -56.49,-21.16 -10.5,0 -22.27,2.59 -35.33,7.777 -13.06,5.184 -22.86,11.582 -29.42,19.192 l 14.17,24.01 c 14.43,-14.17 30.37,-21.26 47.83,-21.26 29,0 43.89,15.81 44.68,47.43 v 27.76 c -11.29,-16.66 -27.3,-24.99 -48.03,-24.99 -22.04,0 -39.23,8.29 -51.57,24.89 -12.33,16.6 -18.76,40.45 -19.29,71.55 v 23.61" /><path
         id="path106"
         style="fill:#8d8e8d;fill-opacity:1;fill-rule:nonzero;stroke:none"
         d="m 6185.48,1313.59 v -51.57 h 32.08 v -28.14 h -32.08 v -132.24 c 0,-8.41 1.38,-14.78 4.13,-19.11 2.76,-4.34 7.49,-6.51 14.18,-6.51 4.59,0 9.25,0.8 13.97,2.37 l -0.39,-29.36 c -7.87,-2.6 -15.94,-3.9 -24.21,-3.9 -13.78,0 -24.28,4.92 -31.49,14.75 -7.22,9.85 -10.83,23.75 -10.83,41.73 v 132.27 h -32.48 v 28.14 h 32.48 v 51.57 h 34.64" /><path
         id="path108"
         style="fill:#8d8e8d;fill-opacity:1;fill-rule:nonzero;stroke:none"
         d="m 6377.62,1106.92 38.78,155.1 h 37 l -69.68,-243.08 c -5.25,-18.23 -12.66,-32.1 -22.24,-41.631 -9.58,-9.508 -20.47,-14.258 -32.67,-14.258 -4.73,0 -10.76,1.051 -18.11,3.148 v 29.52 l 7.67,-0.789 c 10.11,0 18.02,2.39 23.73,7.19 5.7,4.78 10.33,13.08 13.87,24.89 l 6.89,23.82 -62.59,211.19 h 37.99 l 39.36,-155.1" /><path
         id="path110"
         style="fill:#8d8e8d;fill-opacity:1;fill-rule:nonzero;stroke:none"
         d="m 6667,1165.18 c 0,23.88 -3.68,41.5 -11.03,52.86 -7.35,11.34 -19.16,17.02 -35.43,17.02 -16.66,0 -29.32,-8.33 -37.98,-25 v -110.81 c 8.52,-16.27 21.32,-24.41 38.38,-24.41 15.74,0 27.32,5.68 34.74,17.02 7.41,11.35 11.19,28.72 11.32,52.07 z m 34.64,-19.88 c 0,-33.72 -6.07,-58.85 -18.21,-75.38 -12.14,-16.53 -29.29,-24.79 -51.47,-24.79 -21.39,0 -37.86,8.06 -49.4,24.21 V 967.18 h -34.64 v 294.84 h 31.49 l 1.77,-23.61 c 11.68,18.37 28.41,27.55 50.19,27.55 23.36,0 40.81,-8.14 52.36,-24.41 11.54,-16.27 17.51,-40.61 17.91,-73.02 v -23.23" /><path
         id="path112"
         style="fill:#8d8e8d;fill-opacity:1;fill-rule:nonzero;stroke:none"
         d="m 6879.21,1236.04 c -14.43,0 -25.13,-4.95 -32.08,-14.86 -6.96,-9.9 -10.89,-25.29 -11.81,-46.15 h 83.85 v 4.73 c -0.92,20.2 -4.57,34.63 -10.93,43.3 -6.36,8.65 -16.04,12.98 -29.03,12.98 z m 3.94,-190.91 c -26.51,0 -46.85,7.9 -61.02,23.71 -14.17,15.81 -21.39,39 -21.65,69.58 v 25.78 c 0,31.76 6.92,56.65 20.77,74.7 13.84,18.03 33.16,27.06 57.96,27.06 24.93,0 43.56,-7.94 55.9,-23.81 12.33,-15.88 18.63,-40.62 18.89,-74.21 v -22.83 h -118.88 v -4.93 c 0,-22.83 4.3,-39.42 12.89,-49.79 8.6,-10.36 20.96,-15.55 37.11,-15.55 10.23,0 19.25,1.94 27.06,5.81 7.81,3.87 15.12,10 21.95,18.4 l 18.1,-22.04 c -15.09,-21.26 -38.11,-31.88 -69.08,-31.88" /><path
         id="path114"
         style="fill:#8d8e8d;fill-opacity:1;fill-rule:nonzero;stroke:none"
         d="m 7159.73,1103.58 c 0,7.48 -2.83,13.91 -8.47,19.29 -5.64,5.38 -16.53,11.68 -32.67,18.9 -18.77,7.73 -31.98,14.36 -39.66,19.87 -7.67,5.52 -13.42,11.78 -17.22,18.8 -3.81,7.02 -5.71,15.38 -5.71,25.1 0,17.32 6.33,31.72 18.99,43.2 12.67,11.47 28.84,17.22 48.52,17.22 20.73,0 37.4,-6.04 49.99,-18.11 12.6,-12.07 18.9,-27.56 18.9,-46.44 h -34.64 c 0,9.57 -3.22,17.74 -9.64,24.5 -6.44,6.76 -14.64,10.13 -24.61,10.13 -10.23,0 -18.28,-2.65 -24.11,-7.94 -5.84,-5.3 -8.76,-12.4 -8.76,-21.29 0,-7.06 2.13,-12.76 6.4,-17.07 4.26,-4.32 14.53,-10.01 30.8,-17.07 25.85,-10.12 43.43,-20.01 52.75,-29.67 9.31,-9.66 13.98,-21.92 13.98,-36.77 0,-18.53 -6.37,-33.35 -19.1,-44.45 -12.73,-11.11 -29.79,-16.65 -51.17,-16.65 -22.18,0 -40.15,6.35 -53.93,19.09 -13.78,12.72 -20.67,28.87 -20.67,48.42 h 35.04 c 0.39,-11.82 4,-21.07 10.82,-27.76 6.82,-6.69 16.4,-10.04 28.74,-10.04 11.54,0 20.33,2.59 26.37,7.78 6.03,5.18 9.06,12.16 9.06,20.96" /><path
         id="path116"
         style="fill:#8d8e8d;fill-opacity:1;fill-rule:nonzero;stroke:none"
         d="m 7611.91,1110.27 32.28,151.75 h 34.45 l -52.16,-212.96 h -27.75 l -41.53,152.35 -40.55,-152.35 h -27.95 l -51.77,212.96 h 34.25 l 33.07,-148.01 39.56,148.01 h 27.56 l 40.54,-151.75" /><path
         id="path118"
         style="fill:#8d8e8d;fill-opacity:1;fill-rule:nonzero;stroke:none"
         d="m 7813.11,1049.06 h -34.84 v 212.96 h 34.84 z m 2.75,269.46 c 0,-5.91 -1.64,-10.84 -4.92,-14.77 -3.28,-3.94 -8.26,-5.9 -14.96,-5.9 -6.56,0 -11.48,1.96 -14.76,5.9 -3.28,3.93 -4.92,8.86 -4.92,14.77 0,5.89 1.64,10.88 4.92,14.96 3.28,4.06 8.2,6.09 14.76,6.09 6.56,0 11.52,-2.06 14.86,-6.2 3.35,-4.13 5.02,-9.08 5.02,-14.85" /><path
         id="path120"
         style="fill:#8d8e8d;fill-opacity:1;fill-rule:nonzero;stroke:none"
         d="m 7973.95,1313.59 v -51.57 h 32.08 v -28.14 h -32.08 v -132.24 c 0,-8.41 1.38,-14.78 4.13,-19.11 2.76,-4.34 7.48,-6.51 14.18,-6.51 4.59,0 9.24,0.8 13.97,2.37 l -0.39,-29.36 c -7.88,-2.6 -15.95,-3.9 -24.21,-3.9 -13.78,0 -24.28,4.92 -31.5,14.75 -7.21,9.85 -10.82,23.75 -10.82,41.73 v 132.27 h -32.48 v 28.14 h 32.48 v 51.57 h 34.64" /><path
         id="path122"
         style="fill:#8d8e8d;fill-opacity:1;fill-rule:nonzero;stroke:none"
         d="m 8142.67,1240.18 c 13.25,17.18 30.18,25.78 50.78,25.78 37.66,0 56.75,-25.13 57.28,-75.38 v -141.52 h -34.65 V 1189 c 0,16.66 -2.78,28.51 -8.36,35.53 -5.58,7.01 -13.95,10.53 -25.09,10.53 -8.66,0 -16.44,-2.89 -23.33,-8.66 -6.89,-5.78 -12.43,-13.32 -16.63,-22.64 v -154.7 h -34.84 v 302.33 h 34.84 v -111.21" /><path
         id="path124"
         style="fill:#8d8e8d;fill-opacity:1;fill-rule:nonzero;stroke:none"
         d="m 8589.74,1074.84 c 11.54,0 20.79,3.58 27.75,10.73 6.95,7.15 10.76,17.35 11.42,30.61 h 32.87 c -0.79,-20.48 -8.04,-37.43 -21.76,-50.88 -13.71,-13.45 -30.47,-20.17 -50.28,-20.17 -26.38,0 -46.49,8.29 -60.33,24.89 -13.84,16.6 -20.76,41.3 -20.76,74.11 v 23.42 c 0,32.15 6.89,56.59 20.66,73.32 13.78,16.73 33.86,25.09 60.23,25.09 21.78,0 39.07,-6.89 51.87,-20.67 12.79,-13.78 19.58,-32.61 20.37,-56.48 h -32.87 c -0.79,15.74 -4.56,27.55 -11.32,35.43 -6.76,7.87 -16.11,11.8 -28.05,11.8 -15.48,0 -26.96,-5.08 -34.44,-15.25 -7.48,-10.18 -11.35,-26.86 -11.61,-50.1 v -27.16 c 0,-25.06 3.7,-42.77 11.11,-53.14 7.42,-10.36 19.13,-15.55 35.14,-15.55" /><path
         id="path126"
         style="fill:#8d8e8d;fill-opacity:1;fill-rule:nonzero;stroke:none"
         d="m 8871.04,1067.75 c -11.55,-15.08 -28.41,-22.62 -50.59,-22.62 -19.28,0 -33.85,6.65 -43.69,19.97 -9.84,13.32 -14.83,32.7 -14.96,58.16 v 138.76 h 34.64 v -136.2 c 0,-33.19 9.97,-49.8 29.92,-49.8 21.13,0 35.69,9.45 43.69,28.34 v 157.66 h 34.84 v -212.96 h -33.06 l -0.79,18.69" /><path
         id="path128"
         style="fill:#8d8e8d;fill-opacity:1;fill-rule:nonzero;stroke:none"
         d="m 9121.25,1103.58 c 0,7.48 -2.83,13.91 -8.47,19.29 -5.64,5.38 -16.53,11.68 -32.67,18.9 -18.77,7.73 -31.98,14.36 -39.66,19.87 -7.68,5.52 -13.42,11.78 -17.22,18.8 -3.81,7.02 -5.71,15.38 -5.71,25.1 0,17.32 6.33,31.72 18.99,43.2 12.67,11.47 28.84,17.22 48.52,17.22 20.73,0 37.4,-6.04 49.99,-18.11 12.6,-12.07 18.9,-27.56 18.9,-46.44 h -34.64 c 0,9.57 -3.22,17.74 -9.65,24.5 -6.43,6.76 -14.63,10.13 -24.6,10.13 -10.23,0 -18.28,-2.65 -24.11,-7.94 -5.84,-5.3 -8.76,-12.4 -8.76,-21.29 0,-7.06 2.13,-12.76 6.4,-17.07 4.26,-4.32 14.53,-10.01 30.8,-17.07 25.85,-10.12 43.43,-20.01 52.75,-29.67 9.31,-9.66 13.97,-21.92 13.97,-36.77 0,-18.53 -6.36,-33.35 -19.09,-44.45 -12.73,-11.11 -29.79,-16.65 -51.17,-16.65 -22.18,0 -40.16,6.35 -53.93,19.09 -13.78,12.72 -20.67,28.87 -20.67,48.42 h 35.04 c 0.39,-11.82 3.99,-21.07 10.82,-27.76 6.82,-6.69 16.4,-10.04 28.74,-10.04 11.54,0 20.33,2.59 26.37,7.78 6.03,5.18 9.06,12.16 9.06,20.96" /><path
         id="path130"
         style="fill:#8d8e8d;fill-opacity:1;fill-rule:nonzero;stroke:none"
         d="m 9307.48,1313.59 v -51.57 h 32.08 v -28.14 h -32.08 v -132.24 c 0,-8.41 1.38,-14.78 4.13,-19.11 2.76,-4.34 7.48,-6.51 14.18,-6.51 4.59,0 9.24,0.8 13.97,2.37 l -0.39,-29.36 c -7.88,-2.6 -15.95,-3.9 -24.21,-3.9 -13.78,0 -24.28,4.92 -31.5,14.75 -7.21,9.85 -10.82,23.75 -10.82,41.73 v 132.27 h -32.48 v 28.14 h 32.48 v 51.57 h 34.64" /><path
         id="path132"
         style="fill:#8d8e8d;fill-opacity:1;fill-rule:nonzero;stroke:none"
         d="m 9464.98,1145.3 c 0,-21.91 4.29,-39.13 12.89,-51.66 8.59,-12.53 20.17,-18.8 34.74,-18.8 30.71,0 46.52,22.18 47.43,66.53 v 24.01 c 0,21.79 -4.33,39 -12.99,51.67 -8.66,12.66 -20.27,18.99 -34.83,18.99 -14.31,0 -25.76,-6.33 -34.35,-18.99 -8.6,-12.67 -12.89,-29.82 -12.89,-51.47 z m -34.84,20.08 c 0,30.97 7.51,55.47 22.54,73.52 15.02,18.03 34.86,27.06 59.54,27.06 24.67,0 44.51,-8.79 59.53,-26.37 15.03,-17.59 22.74,-41.53 23.13,-71.85 v -22.44 c 0,-30.83 -7.48,-55.23 -22.44,-73.21 -14.95,-17.98 -34.9,-26.96 -59.83,-26.96 -24.67,0 -44.45,8.72 -59.34,26.17 -14.9,17.45 -22.61,41.07 -23.13,70.86 v 23.22" /><path
         id="path134"
         style="fill:#8d8e8d;fill-opacity:1;fill-rule:nonzero;stroke:none"
         d="m 9733.1,1262.02 0.78,-19.68 c 12.99,15.75 30.11,23.62 51.37,23.62 23.75,0 40.35,-10.31 49.8,-30.9 13.38,20.59 32.01,30.9 55.9,30.9 39.23,0 59.3,-24.48 60.22,-73.41 v -143.49 h -34.64 v 140.14 c 0,15.48 -2.75,26.99 -8.27,34.54 -5.51,7.55 -14.82,11.32 -27.95,11.32 -10.5,0 -19.02,-4.07 -25.58,-12.2 -6.57,-8.14 -10.36,-18.51 -11.42,-31.1 v -142.7 h -35.03 v 141.71 c -0.39,29.52 -12.4,44.29 -36.02,44.29 -17.58,0 -29.98,-8.79 -37.2,-26.38 v -159.62 h -34.64 v 212.96 h 32.68" /><path
         id="path136"
         style="fill:#8d8e8d;fill-opacity:1;fill-rule:nonzero;stroke:none"
         d="m 10290.8,1074.84 c 11.5,0 20.8,3.58 27.7,10.73 7,7.15 10.8,17.35 11.4,30.61 h 32.9 c -0.8,-20.48 -8,-37.43 -21.7,-50.88 -13.7,-13.45 -30.5,-20.17 -50.3,-20.17 -26.4,0 -46.5,8.29 -60.4,24.89 -13.8,16.6 -20.7,41.3 -20.7,74.11 v 23.42 c 0,32.15 6.9,56.59 20.7,73.32 13.7,16.73 33.8,25.09 60.2,25.09 21.8,0 39,-6.89 51.8,-20.67 12.8,-13.78 19.6,-32.61 20.4,-56.48 h -32.9 c -0.7,15.74 -4.5,27.55 -11.3,35.43 -6.7,7.87 -16.1,11.8 -28,11.8 -15.5,0 -27,-5.08 -34.5,-15.25 -7.4,-10.18 -11.3,-26.86 -11.6,-50.1 v -27.16 c 0,-25.06 3.7,-42.77 11.1,-53.14 7.5,-10.36 19.2,-15.55 35.2,-15.55" /><path
         id="path138"
         style="fill:#8d8e8d;fill-opacity:1;fill-rule:nonzero;stroke:none"
         d="m 10501,1049.06 h -34.8 v 302.33 h 34.8 v -302.33" /><path
         id="path140"
         style="fill:#8d8e8d;fill-opacity:1;fill-rule:nonzero;stroke:none"
         d="m 10724.9,1067.75 c -11.6,-15.08 -28.5,-22.62 -50.6,-22.62 -19.3,0 -33.9,6.65 -43.7,19.97 -9.9,13.32 -14.9,32.7 -15,58.16 v 138.76 h 34.7 v -136.2 c 0,-33.19 9.9,-49.8 29.9,-49.8 21.1,0 35.7,9.45 43.7,28.34 v 157.66 h 34.8 v -212.96 h -33.1 l -0.7,18.69" /><path
         id="path142"
         style="fill:#8d8e8d;fill-opacity:1;fill-rule:nonzero;stroke:none"
         d="m 10991.2,1165.27 c 0,25.17 -3.5,43.09 -10.5,53.76 -7.1,10.69 -18.4,16.03 -34.2,16.03 -18,0 -31.3,-9.7 -40.1,-29.09 v -101.24 c 8.6,-19.14 22.1,-28.71 40.5,-28.71 15.8,0 27,5.5 33.9,16.52 6.8,11 10.3,28.1 10.4,51.31 z m 34.6,-19.97 c 0,-33.19 -5.9,-58.19 -17.9,-74.99 -11.9,-16.79 -29.2,-25.18 -51.9,-25.18 -22.6,0 -39.5,9.7 -50.8,29.13 l -1.8,-25.2 h -31.7 v 302.33 h 34.7 V 1238.6 c 11.4,18.24 27.8,27.36 49.2,27.36 23.3,0 40.8,-8.27 52.5,-24.8 11.7,-16.53 17.6,-41.46 17.7,-74.79 v -21.07" /><path
         id="path144"
         style="fill:#8d8e8d;fill-opacity:1;fill-rule:nonzero;stroke:none"
         d="m 11402.8,1165.18 c 0,23.88 -3.6,41.5 -11,52.86 -7.3,11.34 -19.1,17.02 -35.4,17.02 -16.7,0 -29.3,-8.33 -38,-25 v -110.81 c 8.5,-16.27 21.3,-24.41 38.4,-24.41 15.7,0 27.3,5.68 34.7,17.02 7.4,11.35 11.2,28.72 11.3,52.07 z m 34.7,-19.88 c 0,-33.72 -6.1,-58.85 -18.2,-75.38 -12.2,-16.53 -29.3,-24.79 -51.5,-24.79 -21.4,0 -37.9,8.06 -49.4,24.21 V 967.18 h -34.6 v 294.84 h 31.4 l 1.8,-23.61 c 11.7,18.37 28.4,27.55 50.2,27.55 23.4,0 40.8,-8.14 52.4,-24.41 11.5,-16.27 17.5,-40.61 17.9,-73.02 v -23.23" /><path
         id="path146"
         style="fill:#8d8e8d;fill-opacity:1;fill-rule:nonzero;stroke:none"
         d="m 11651.5,1067.75 c -11.6,-15.08 -28.4,-22.62 -50.6,-22.62 -19.3,0 -33.9,6.65 -43.7,19.97 -9.9,13.32 -14.8,32.7 -15,58.16 v 138.76 h 34.7 v -136.2 c 0,-33.19 9.9,-49.8 29.9,-49.8 21.1,0 35.7,9.45 43.7,28.34 v 157.66 h 34.8 v -212.96 h -33 l -0.8,18.69" /><path
         id="path148"
         style="fill:#8d8e8d;fill-opacity:1;fill-rule:nonzero;stroke:none"
         d="m 11886.1,1229.35 c -4.8,0.91 -10.1,1.38 -15.7,1.38 -17.9,0 -30.3,-9.77 -37.4,-29.32 v -152.35 h -34.9 v 212.96 h 33.9 l 0.6,-21.65 c 9.3,17.06 22.5,25.59 39.5,25.59 5.6,0 10.1,-0.92 13.8,-2.76 l 0.2,-33.85" /><path
         id="path150"
         style="fill:#8d8e8d;fill-opacity:1;fill-rule:nonzero;stroke:none"
         d="m 12051.5,1074.84 c 11.5,0 20.8,3.58 27.7,10.73 7,7.15 10.8,17.35 11.5,30.61 h 32.8 c -0.8,-20.48 -8,-37.43 -21.7,-50.88 -13.7,-13.45 -30.5,-20.17 -50.3,-20.17 -26.4,0 -46.5,8.29 -60.3,24.89 -13.9,16.6 -20.8,41.3 -20.8,74.11 v 23.42 c 0,32.15 6.9,56.59 20.7,73.32 13.7,16.73 33.8,25.09 60.2,25.09 21.8,0 39.1,-6.89 51.9,-20.67 12.7,-13.78 19.5,-32.61 20.3,-56.48 h -32.8 c -0.8,15.74 -4.6,27.55 -11.4,35.43 -6.7,7.87 -16.1,11.8 -28,11.8 -15.5,0 -27,-5.08 -34.5,-15.25 -7.4,-10.18 -11.3,-26.86 -11.6,-50.1 v -27.16 c 0,-25.06 3.7,-42.77 11.2,-53.14 7.4,-10.36 19.1,-15.55 35.1,-15.55" /><path
         id="path152"
         style="fill:#8d8e8d;fill-opacity:1;fill-rule:nonzero;stroke:none"
         d="m 12259,1240.18 c 13.2,17.18 30.2,25.78 50.8,25.78 37.6,0 56.7,-25.13 57.2,-75.38 v -141.52 h -34.6 V 1189 c 0,16.66 -2.8,28.51 -8.4,35.53 -5.5,7.01 -13.9,10.53 -25.1,10.53 -8.6,0 -16.4,-2.89 -23.3,-8.66 -6.9,-5.78 -12.4,-13.32 -16.6,-22.64 v -154.7 h -34.9 v 302.33 h 34.9 v -111.21" /><path
         id="path154"
         style="fill:#8d8e8d;fill-opacity:1;fill-rule:nonzero;stroke:none"
         d="m 12542.5,1076.82 c 8.5,0 16.6,2.35 24.4,7.08 7.7,4.72 13.3,10.63 16.9,17.71 v 50.78 h -19.7 c -16.5,-0.26 -29.6,-3.97 -39.2,-11.12 -9.5,-7.15 -14.3,-17.16 -14.3,-30.01 0,-12.08 2.4,-20.84 7.3,-26.28 4.8,-5.45 13,-8.16 24.6,-8.16 z m 46.4,-27.76 c -2.1,4.59 -3.6,12.34 -4.5,23.22 -12.4,-18.1 -28.1,-27.15 -47.3,-27.15 -19.2,0 -34.3,5.41 -45.1,16.23 -10.9,10.83 -16.3,26.08 -16.3,45.76 0,21.65 7.4,38.85 22.1,51.57 14.7,12.73 34.8,19.22 60.4,19.48 h 25.6 v 22.64 c 0,12.72 -2.8,21.78 -8.5,27.17 -5.6,5.37 -14.2,8.06 -25.8,8.06 -10.5,0 -19,-3.11 -25.5,-9.34 -6.6,-6.24 -9.9,-14.14 -9.9,-23.72 h -34.8 c 0,10.89 3.2,21.29 9.6,31.19 6.4,9.91 15.1,17.68 26,23.33 10.9,5.63 23,8.46 36.4,8.46 21.8,0 38.4,-5.41 49.7,-16.23 11.4,-10.83 17.2,-26.62 17.4,-47.35 v -107.46 c 0.2,-16.4 2.4,-30.64 6.7,-42.71 v -3.15 h -36.2" /><path
         id="path156"
         style="fill:#8d8e8d;fill-opacity:1;fill-rule:nonzero;stroke:none"
         d="m 12836.3,1103.58 c 0,7.48 -2.8,13.91 -8.4,19.29 -5.7,5.38 -16.6,11.68 -32.7,18.9 -18.8,7.73 -32,14.36 -39.7,19.87 -7.6,5.52 -13.4,11.78 -17.2,18.8 -3.8,7.02 -5.7,15.38 -5.7,25.1 0,17.32 6.3,31.72 19,43.2 12.7,11.47 28.8,17.22 48.5,17.22 20.8,0 37.4,-6.04 50,-18.11 12.6,-12.07 18.9,-27.56 18.9,-46.44 h -34.6 c 0,9.57 -3.2,17.74 -9.7,24.5 -6.4,6.76 -14.6,10.13 -24.6,10.13 -10.2,0 -18.2,-2.65 -24.1,-7.94 -5.8,-5.3 -8.7,-12.4 -8.7,-21.29 0,-7.06 2.1,-12.76 6.4,-17.07 4.2,-4.32 14.5,-10.01 30.8,-17.07 25.8,-10.12 43.4,-20.01 52.7,-29.67 9.3,-9.66 14,-21.92 14,-36.77 0,-18.53 -6.4,-33.35 -19.1,-44.45 -12.7,-11.11 -29.8,-16.65 -51.2,-16.65 -22.2,0 -40.1,6.35 -53.9,19.09 -13.8,12.72 -20.7,28.87 -20.7,48.42 h 35.1 c 0.3,-11.82 4,-21.07 10.8,-27.76 6.8,-6.69 16.4,-10.04 28.7,-10.04 11.6,0 20.4,2.59 26.4,7.78 6,5.18 9,12.16 9,20.96" /><path
         id="path158"
         style="fill:#8d8e8d;fill-opacity:1;fill-rule:nonzero;stroke:none"
         d="m 13049.2,1236.04 c -14.5,0 -25.2,-4.95 -32.1,-14.86 -7,-9.9 -10.9,-25.29 -11.8,-46.15 h 83.8 v 4.73 c -0.9,20.2 -4.5,34.63 -10.9,43.3 -6.4,8.65 -16.1,12.98 -29,12.98 z m 3.9,-190.91 c -26.5,0 -46.8,7.9 -61,23.71 -14.2,15.81 -21.4,39 -21.7,69.58 v 25.78 c 0,31.76 6.9,56.65 20.8,74.7 13.8,18.03 33.2,27.06 58,27.06 24.9,0 43.5,-7.94 55.8,-23.81 12.4,-15.88 18.7,-40.62 18.9,-74.21 v -22.83 h -118.8 v -4.93 c 0,-22.83 4.3,-39.42 12.9,-49.79 8.6,-10.36 20.9,-15.55 37.1,-15.55 10.2,0 19.2,1.94 27,5.81 7.8,3.87 15.1,10 22,18.4 l 18.1,-22.04 c -15.1,-21.26 -38.1,-31.88 -69.1,-31.88" /><path
         id="path160"
         style="fill:#8d8e8d;fill-opacity:1;fill-rule:nonzero;stroke:none"
         d="m 13263.4,1249.68 -94.8,28.22 14.5,47.34 94.8,-35.11 -2.9,107.86 h 48.1 l -3.2,-109.44 93.2,34.5 14.5,-47.66 -96.4,-28.54 62.2,-85.05 -38.9,-29.51 -58.4,90.39 -56.5,-88.19 -39.3,28.57 63.1,86.62" /><path
         id="path162"
         style="fill:#3479ae;fill-opacity:1;fill-rule:nonzero;stroke:none"
         d="m 262.227,2339.11 c 0,25.91 -7.129,47.75 -21.387,65.54 -14.262,17.79 -38.789,34.22 -73.578,49.31 -51.055,18.54 -88.2737,42.7 -111.6526,72.5 -23.3867,29.81 -35.0781,67.66 -35.0781,113.58 0,46.77 11.3398,84.92 34.0078,114.43 22.6718,29.52 53.5429,47.41 92.6129,53.69 v 94.11 h 60.321 v -94.54 c 39.925,-7.13 70.8,-27.45 92.617,-60.96 21.812,-33.51 32.723,-79.21 32.723,-137.1 h -74.864 c 0,39.63 -7.269,71.44 -21.816,95.39 -14.547,23.96 -34.508,35.94 -59.887,35.94 -25.387,0 -45.133,-8.71 -59.25,-26.1 -14.113,-17.4 -21.1757,-41.92 -21.1757,-73.57 0,-28.81 7.6247,-51.84 22.8867,-69.09 15.254,-17.26 40.141,-33.15 74.648,-47.7 51.618,-19.4 88.618,-43.56 111.008,-72.51 22.383,-28.94 33.582,-66.38 33.582,-112.29 0,-46.78 -11.976,-84.99 -35.933,-114.65 -23.953,-29.66 -58.324,-47.48 -103.098,-53.47 v -82.13 h -59.461 v 82.13 c -45.0624,6.57 -79.5663,26.24 -103.5194,59.03 C 11.9766,2263.45 0,2307.23 0,2361.99 h 75.2891 c 0,-39.51 7.9765,-69.92 23.9531,-91.24 15.9688,-21.31 38.4998,-31.96 67.5898,-31.96 29.656,0 52.973,8.89 69.945,26.68 16.961,17.78 25.45,42.33 25.45,73.64" /><path
         id="path164"
         style="fill:#3479ae;fill-opacity:1;fill-rule:nonzero;stroke:none"
         d="M 864.281,1770.62 H 734.234 v 900.86 l -223.57,-100.1 v 122.75 l 333.16,145.39 h 20.457 v -1068.9" /><path
         id="path166"
         style="fill:#3479ae;fill-opacity:1;fill-rule:nonzero;stroke:none"
         d="m 1552.25,2409.19 c 0,112.51 -12.42,195.44 -37.26,248.77 -24.84,53.33 -64.55,80 -119.09,80 -53.09,0 -92.06,-26.18 -116.9,-78.54 -24.84,-52.37 -37.75,-131.39 -38.72,-237.08 v -219.19 c 0,-112.03 12.9,-196.17 38.72,-252.43 25.81,-56.26 65.27,-84.38 118.36,-84.38 52.61,0 91.33,26.54 116.17,79.64 24.84,53.08 37.74,134.18 38.72,243.29 z m 129.32,-184.85 c 0,-156.84 -22.9,-274.11 -68.67,-351.79 -45.8,-77.7 -117.64,-116.53 -215.54,-116.53 -94.98,0 -165.85,37.26 -212.61,111.78 -46.76,74.52 -71.12,186.54 -73.06,336.09 v 182.65 c 0,155.37 23.02,271.3 69.04,347.77 46.03,76.47 117.75,114.71 215.17,114.71 95.95,0 166.95,-36.3 212.98,-108.86 46.02,-72.59 70.25,-182.42 72.69,-329.51 v -186.31" /><path
         id="path168"
         style="fill:#3479ae;fill-opacity:1;fill-rule:nonzero;stroke:none"
         d="m 2395.64,2409.19 c 0,112.51 -12.41,195.44 -37.26,248.77 -24.83,53.33 -64.54,80 -119.09,80 -53.09,0 -92.05,-26.18 -116.89,-78.54 -24.85,-52.37 -37.76,-131.39 -38.73,-237.08 v -219.19 c 0,-112.03 12.9,-196.17 38.73,-252.43 25.81,-56.26 65.26,-84.38 118.36,-84.38 52.6,0 91.32,26.54 116.16,79.64 24.84,53.08 37.74,134.18 38.72,243.29 z m 129.33,-184.85 c 0,-156.84 -22.9,-274.11 -68.68,-351.79 -45.79,-77.7 -117.63,-116.53 -215.53,-116.53 -94.98,0 -165.85,37.26 -212.62,111.78 -46.75,74.52 -71.11,186.54 -73.06,336.09 v 182.65 c 0,155.37 23.02,271.3 69.05,347.77 46.03,76.47 117.74,114.71 215.16,114.71 95.95,0 166.95,-36.3 212.98,-108.86 46.03,-72.59 70.25,-182.42 72.7,-329.51 v -186.31" /><path
         id="path170"
         style="fill:#3479ae;fill-opacity:1;fill-rule:nonzero;stroke:none"
         d="M 3709.88,2240.41 H 3350.42 V 1770.62 H 3216.71 V 2834.4 h 553.81 v -114.7 h -420.1 v -364.58 h 359.46 v -114.71" /><path
         id="path172"
         style="fill:#3479ae;fill-opacity:1;fill-rule:nonzero;stroke:none"
         d="m 4379.41,1840.04 c -42.86,-56.03 -105.45,-84.02 -187.76,-84.02 -71.61,0 -125.67,24.71 -162.2,74.16 -36.53,49.42 -55.05,121.39 -55.53,215.89 v 515.09 h 128.59 v -505.59 c 0,-123.24 37.01,-184.85 111.05,-184.85 78.42,0 132.49,35.07 162.2,105.21 v 585.23 h 129.32 v -790.54 h -122.75 l -2.92,69.42" /><path
         id="path174"
         style="fill:#3479ae;fill-opacity:1;fill-rule:nonzero;stroke:none"
         d="m 4913.78,1770.62 h -129.32 v 1122.23 h 129.32 V 1770.62" /><path
         id="path176"
         style="fill:#3479ae;fill-opacity:1;fill-rule:nonzero;stroke:none"
         d="m 5331.26,1770.62 h -129.32 v 1122.23 h 129.32 V 1770.62" /><path
         id="path178"
         style="fill:#3479ae;fill-opacity:1;fill-rule:nonzero;stroke:none"
         d="m 6178.62,2268.18 v -382.85 h 182.66 c 50.65,0 90.83,16.68 120.55,50.05 29.7,33.36 44.57,80.25 44.57,140.64 0,128.11 -54.07,192.16 -162.2,192.16 z m 0,112.51 h 171.7 c 46.27,0 83.65,15.62 112.15,46.86 28.49,31.24 42.74,72.73 42.74,124.47 0,58.57 -12.91,101.17 -38.73,127.77 -25.82,26.6 -65.27,39.91 -118.35,39.91 h -169.51 z m -133.7,-610.07 V 2834.4 h 303.21 c 96.92,0 169.86,-23.62 218.81,-70.86 48.96,-47.25 73.43,-118.13 73.43,-212.61 0,-49.68 -12.42,-93.52 -37.26,-131.52 -24.84,-37.98 -58.45,-67.46 -100.82,-88.4 48.7,-14.61 87.31,-44.56 115.8,-89.86 28.49,-45.3 42.74,-99.86 42.74,-163.66 0,-95.48 -26.19,-170.49 -78.54,-225.03 -52.37,-54.56 -127.02,-81.84 -223.94,-81.84 h -313.43" /><path
         id="path180"
         style="fill:#3479ae;fill-opacity:1;fill-rule:nonzero;stroke:none"
         d="m 7152.09,1873.64 c 31.66,0 61.85,8.77 90.6,26.3 28.73,17.54 49.68,39.45 62.83,65.76 v 188.5 h -73.06 c -61.37,-0.98 -109.84,-14.74 -145.39,-41.27 -35.56,-26.56 -53.34,-63.7 -53.34,-111.43 0,-44.82 9.01,-77.33 27.04,-97.54 18.01,-20.21 48.45,-30.32 91.32,-30.32 z m 172.43,-103.02 c -7.8,17.06 -13.41,45.79 -16.81,86.22 -45.79,-67.22 -104.23,-100.82 -175.35,-100.82 -71.59,0 -127.49,20.08 -167.67,60.27 -40.18,40.18 -60.28,96.8 -60.28,169.87 0,80.37 27.27,144.17 81.83,191.42 54.55,47.24 129.32,71.35 224.3,72.33 h 94.98 v 84.02 c 0,47.24 -10.48,80.85 -31.41,100.83 -20.96,19.97 -52.86,29.95 -95.72,29.95 -38.97,0 -70.63,-11.57 -94.98,-34.7 -24.36,-23.14 -36.52,-52.49 -36.52,-88.04 h -129.33 c 0,40.42 11.93,79.02 35.8,115.8 23.86,36.77 56.01,65.63 96.45,86.58 40.42,20.94 85.48,31.42 135.16,31.42 80.85,0 142.34,-20.1 184.48,-60.28 42.12,-40.18 63.68,-98.76 64.66,-175.71 v -398.92 c 0.48,-60.89 8.77,-113.73 24.84,-158.55 v -11.69 h -134.43" /><path
         id="path182"
         style="fill:#3479ae;fill-opacity:1;fill-rule:nonzero;stroke:none"
         d="m 7842.79,2128.31 c 0,-88.54 13.02,-153.61 39.09,-195.2 26.05,-41.6 68.78,-62.39 128.22,-62.39 64.29,0 112.51,32.83 144.66,98.51 v 394.78 c -33.61,64.7 -81.35,97.05 -143.2,97.05 -59.43,0 -102.29,-20.8 -128.59,-62.39 -26.3,-41.6 -39.7,-105.45 -40.18,-191.54 z m -129.32,73.39 c 0,123.22 22.39,216.37 67.21,279.45 44.81,63.07 110.33,94.62 196.54,94.62 80.37,0 141.49,-34.34 183.39,-103.02 l 6.57,88.41 h 116.9 v -797.84 c 0,-97.9 -25.1,-173.03 -75.26,-225.39 -50.17,-52.35 -120.07,-78.55 -209.68,-78.55 -38.97,0 -82.69,9.63 -131.15,28.86 -48.47,19.25 -84.87,43 -109.23,71.24 l 52.61,89.13 c 53.58,-52.6 112.76,-78.9 177.54,-78.9 107.64,0 162.93,58.7 165.85,176.08 v 103.01 c -41.9,-61.86 -101.32,-92.78 -178.27,-92.78 -81.83,0 -145.64,30.8 -191.42,92.42 -45.79,61.61 -69.66,150.14 -71.6,265.58 v 87.68" /><path
         id="path184"
         style="fill:#3479ae;fill-opacity:1;fill-rule:nonzero;stroke:none"
         d="m 9479.95,2240.41 h -359.47 v -469.79 h -133.7 V 2834.4 h 553.81 v -114.7 h -420.11 v -364.58 h 359.47 v -114.71" /><path
         id="path186"
         style="fill:#3479ae;fill-opacity:1;fill-rule:nonzero;stroke:none"
         d="m 9901.8,1770.62 h -129.31 v 790.54 h 129.31 z m 10.23,1000.22 c 0,-21.92 -6.09,-40.18 -18.26,-54.8 -12.19,-14.61 -30.69,-21.91 -55.53,-21.91 -24.36,0 -42.62,7.3 -54.8,21.91 -12.18,14.62 -18.26,32.88 -18.26,54.8 0,21.92 6.08,40.43 18.26,55.53 12.18,15.09 30.44,22.65 54.8,22.65 24.35,0 42.74,-7.67 55.16,-23.02 12.42,-15.34 18.63,-33.73 18.63,-55.16" /><path
         id="path188"
         style="fill:#3479ae;fill-opacity:1;fill-rule:nonzero;stroke:none"
         d="m 10349.2,2752.58 v -191.42 h 119.1 v -104.48 h -119.1 v -490.86 c 0,-31.21 5.1,-54.87 15.4,-70.97 10.2,-16.09 27.7,-24.13 52.6,-24.13 17,0 34.3,2.92 51.9,8.77 l -1.5,-108.95 c -29.2,-9.68 -59.2,-14.52 -89.9,-14.52 -51.1,0 -90.1,18.26 -116.9,54.79 -26.8,36.53 -40.2,88.15 -40.2,154.89 v 490.98 h -120.5 v 104.48 h 120.5 v 191.42 h 128.6" /><path
         id="path190"
         style="fill:#3479ae;fill-opacity:1;fill-rule:nonzero;stroke:none"
         d="m 10866.1,2752.58 v -191.42 h 119.1 v -104.48 h -119.1 v -490.86 c 0,-31.21 5.1,-54.87 15.3,-70.97 10.2,-16.09 27.8,-24.13 52.6,-24.13 17.1,0 34.4,2.92 51.9,8.77 l -1.5,-108.95 c -29.2,-9.68 -59.1,-14.52 -89.8,-14.52 -51.2,0 -90.2,18.26 -116.9,54.79 -26.8,36.53 -40.2,88.15 -40.2,154.89 v 490.98 h -120.6 v 104.48 h 120.6 v 191.42 h 128.6" /><path
         id="path192"
         style="fill:#3479ae;fill-opacity:1;fill-rule:nonzero;stroke:none"
         d="m 11352.9,1770.62 h -129.3 v 790.54 h 129.3 z m 10.3,1000.22 c 0,-21.92 -6.1,-40.18 -18.3,-54.8 -12.2,-14.61 -30.7,-21.91 -55.5,-21.91 -24.4,0 -42.6,7.3 -54.8,21.91 -12.2,14.62 -18.3,32.88 -18.3,54.8 0,21.92 6.1,40.43 18.3,55.53 12.2,15.09 30.4,22.65 54.8,22.65 24.3,0 42.7,-7.67 55.2,-23.02 12.4,-15.34 18.6,-33.73 18.6,-55.16" /><path
         id="path194"
         style="fill:#3479ae;fill-opacity:1;fill-rule:nonzero;stroke:none"
         d="m 11752.9,2561.16 3.6,-85.49 c 50.2,66.73 114.3,100.1 192.2,100.1 139.8,0 210.6,-93.28 212.6,-279.83 v -525.32 h -128.6 v 519.48 c 0,61.85 -10.3,105.81 -31,131.87 -20.7,26.05 -51.8,39.09 -93.2,39.09 -32.1,0 -61,-10.72 -86.6,-32.15 -25.5,-21.43 -46.1,-49.44 -61.7,-84.02 v -574.27 h -129.3 v 790.54 h 122" /><path
         id="path196"
         style="fill:#3479ae;fill-opacity:1;fill-rule:nonzero;stroke:none"
         d="m 12533.5,2128.31 c 0,-88.54 13,-153.61 39.1,-195.2 26,-41.6 68.8,-62.39 128.2,-62.39 64.3,0 112.5,32.83 144.6,98.51 v 394.78 c -33.6,64.7 -81.3,97.05 -143.1,97.05 -59.5,0 -102.3,-20.8 -128.6,-62.39 -26.3,-41.6 -39.7,-105.45 -40.2,-191.54 z m -129.3,73.39 c 0,123.22 22.4,216.37 67.2,279.45 44.8,63.07 110.3,94.62 196.5,94.62 80.4,0 141.5,-34.34 183.4,-103.02 l 6.6,88.41 h 116.9 v -797.84 c 0,-97.9 -25.1,-173.03 -75.3,-225.39 -50.2,-52.35 -120.1,-78.55 -209.7,-78.55 -38.9,0 -82.7,9.63 -131.1,28.86 -48.5,19.25 -84.9,43 -109.2,71.24 l 52.6,89.13 c 53.5,-52.6 112.7,-78.9 177.5,-78.9 107.6,0 162.9,58.7 165.8,176.08 v 103.01 c -41.8,-61.86 -101.3,-92.78 -178.2,-92.78 -81.8,0 -145.7,30.8 -191.4,92.42 -45.8,61.61 -69.7,150.14 -71.6,265.58 v 87.68" /><path
         id="path198"
         style="fill:#3479ae;fill-opacity:1;fill-rule:nonzero;stroke:none"
         d="m 13626,1973.01 c 0,27.76 -10.4,51.62 -31.4,71.6 -20.9,19.96 -61.3,43.34 -121.3,70.14 -69.6,28.73 -118.7,53.34 -147.2,73.79 -28.5,20.46 -49.8,43.71 -63.9,69.78 -14.1,26.04 -21.2,57.09 -21.2,93.15 0,64.29 23.5,117.74 70.5,160.37 47,42.61 107,63.93 180.1,63.93 77,0 138.8,-22.41 185.6,-67.22 46.7,-44.82 70.1,-102.28 70.1,-172.42 h -128.6 c 0,35.55 -11.9,65.87 -35.8,90.96 -23.8,25.08 -54.3,37.62 -91.3,37.62 -38,0 -67.8,-9.83 -89.5,-29.5 -21.7,-19.66 -32.5,-46 -32.5,-79.01 0,-26.24 7.9,-47.36 23.7,-63.39 15.9,-16.02 54,-37.14 114.4,-63.35 95.9,-37.58 161.2,-74.29 195.8,-110.14 34.6,-35.85 51.9,-81.34 51.9,-136.46 0,-68.79 -23.7,-123.8 -70.9,-165.02 -47.3,-41.22 -110.6,-61.82 -190,-61.82 -82.3,0 -149,23.62 -200.2,70.86 -51.1,47.24 -76.7,107.15 -76.7,179.74 h 130.1 c 1.4,-43.84 14.8,-78.18 40.2,-103.02 25.3,-24.84 60.8,-37.26 106.6,-37.26 42.9,0 75.5,9.61 97.9,28.85 22.4,19.24 33.6,45.18 33.6,77.82" /><g
         transform="scale(1.20405)"
         id="g200"><path
           id="path202"
           style="fill:#87d5f5;fill-opacity:1;fill-rule:nonzero;stroke:none"
           d="m 12478.1,1244.59 c 0,14.88 0.7,29.74 2.1,44.54 1.5,14.81 3.7,29.51 6.6,44.11 2.9,14.6 6.5,29.02 10.9,43.26 4.3,14.24 9.3,28.24 14.9,42 5.7,13.74 12.1,27.18 19.1,40.31 7.1,13.12 14.7,25.88 22.9,38.26 8.3,12.37 17.1,24.3 26.6,35.81 9.5,11.51 19.4,22.52 30,33.04 10.5,10.53 21.5,20.51 33,29.96 11.5,9.44 23.5,18.3 35.8,26.57 12.4,8.26 25.1,15.91 38.3,22.92 13.1,7.02 26.5,13.38 40.3,19.07 13.7,5.7 27.8,10.71 42,15.02 14.2,4.32 28.6,7.94 43.2,10.84 14.6,2.9 29.3,5.09 44.1,6.55 14.9,1.45 29.7,2.18 44.6,2.18 h 2913.1 c 14.9,0 29.7,-0.73 44.5,-2.18 14.8,-1.46 29.5,-3.65 44.1,-6.55 14.7,-2.9 29,-6.52 43.3,-10.84 14.2,-4.31 28.2,-9.32 41.9,-15.02 13.8,-5.69 27.3,-12.05 40.4,-19.07 13.1,-7.01 25.8,-14.66 38.2,-22.92 12.4,-8.27 24.4,-17.13 35.9,-26.57 11.5,-9.45 22.5,-19.43 33,-29.96 10.5,-10.52 20.6,-21.53 29.9,-33.04 9.5,-11.51 18.4,-23.44 26.6,-35.81 8.3,-12.38 16,-25.14 22.9,-38.26 7.1,-13.13 13.4,-26.57 19.1,-40.31 5.7,-13.76 10.8,-27.76 15.1,-42 4.3,-14.24 7.9,-28.66 10.8,-43.26 2.9,-14.6 5,-29.3 6.5,-44.11 1.5,-14.8 2.2,-29.66 2.2,-44.54 0,-14.89 -0.7,-29.74 -2.2,-44.54 -1.5,-14.81 -3.6,-29.52 -6.5,-44.12 -2.9,-14.6 -6.5,-29.02 -10.8,-43.26 -4.3,-14.23 -9.4,-28.23 -15.1,-41.99 -5.7,-13.75 -12,-27.18 -19.1,-40.32 -6.9,-13.12 -14.6,-25.88 -22.9,-38.242 -8.2,-12.384 -17.1,-24.316 -26.6,-35.82 -9.3,-11.501 -19.4,-22.525 -29.9,-33.046 -10.5,-10.524 -21.5,-20.507 -33,-29.951 -11.5,-9.434 -23.5,-18.295 -35.9,-26.567 -12.4,-8.264 -25.1,-15.913 -38.2,-22.924 -13.1,-7.018 -26.6,-13.38 -40.4,-19.067 -13.7,-5.69 -27.7,-10.699 -41.9,-15.024 -14.3,-4.321 -28.6,-7.932 -43.3,-10.833 -14.6,-2.913 -29.3,-5.08 -44.1,-6.55 -14.8,-1.463 -29.6,-2.186 -44.5,-2.186 h -2913.1 c -14.9,0 -29.7,0.723 -44.6,2.186 -14.8,1.47 -29.5,3.637 -44.1,6.55 -14.6,2.901 -29,6.512 -43.2,10.833 -14.2,4.325 -28.3,9.334 -42,15.024 -13.8,5.687 -27.2,12.049 -40.3,19.067 -13.2,7.011 -25.9,14.66 -38.3,22.924 -12.3,8.272 -24.3,17.133 -35.8,26.567 -11.5,9.444 -22.5,19.427 -33,29.951 -10.6,10.521 -20.5,21.545 -30,33.046 -9.5,11.504 -18.3,23.436 -26.6,35.82 -8.2,12.362 -15.8,25.122 -22.9,38.242 -7,13.14 -13.4,26.57 -19.1,40.32 -5.6,13.76 -10.6,27.76 -14.9,41.99 -4.4,14.24 -8,28.66 -10.9,43.26 -2.9,14.6 -5.1,29.31 -6.6,44.12 -1.4,14.8 -2.1,29.65 -2.1,44.54" /></g><path
         id="path204"
         style="fill:#ffffff;fill-opacity:1;fill-rule:nonzero;stroke:none"
         d="m 16102.2,1333.01 c 38.4,0 60,19.81 60,54.76 0,39.04 -26.8,64.67 -68.8,64.67 h -21.5 v -119.43 z m -8.8,174.77 c 36.7,0 60.6,21.56 60.6,54.77 0,14.56 -5.2,27.38 -14.5,36.12 -9.9,8.73 -22.2,12.23 -44.9,12.23 h -22.7 v -103.12 z m -81.5,158.47 h 89.7 c 72.8,0 113.6,-35.54 113.6,-98.46 0,-46.02 -20.4,-73.41 -64.1,-86.8 52.4,-15.15 73.4,-41.95 73.4,-93.22 0,-68.74 -43.1,-110.1 -115.3,-110.1 h -97.3 v 388.58" /><g
         transform="scale(1.01206)"
         id="g206"><path
           id="path208"
           style="fill:#ffffff;fill-opacity:1;fill-rule:nonzero;stroke:none"
           d="m 16149.7,1385.62 c 0,-30.5 1.8,-40.86 7.5,-52.37 6.9,-12.68 21.4,-20.73 38.1,-20.73 16.7,0 31,8.05 37.9,20.73 6.3,12.08 7.5,21.29 7.5,52.37 v 137.58 c 0,31.09 -1.2,40.29 -7.5,52.39 -6.9,12.65 -21.2,20.73 -37.9,20.73 -16.7,0 -31.2,-8.08 -38.1,-20.73 -5.7,-11.51 -7.5,-21.88 -7.5,-52.39 z m 150.3,-1.15 c 0,-43.17 -6.3,-69.07 -21.8,-90.95 -17.3,-24.17 -46.1,-36.84 -82.9,-36.84 -36.9,0 -65.7,12.67 -82.9,36.84 -15.7,21.88 -22,47.78 -22,90.95 v 139.88 c 0,43.17 6.3,69.08 22,90.95 17.2,24.19 46,36.84 82.9,36.84 36.8,0 65.6,-12.65 82.9,-36.84 15.5,-21.87 21.8,-47.78 21.8,-90.95 v -139.88" /></g><g
         transform="scale(1.02886)"
         id="g210"><path
           id="path212"
           style="fill:#ffffff;fill-opacity:1;fill-rule:nonzero;stroke:none"
           d="m 16152.2,1362.99 c 0,-30.01 1.6,-40.19 7.4,-51.52 6.8,-12.47 20.9,-20.39 37.3,-20.39 16.4,0 30.6,7.92 37.4,20.39 6.2,11.89 7.3,20.95 7.3,51.52 v 135.33 c 0,30.59 -1.1,39.64 -7.3,51.53 -6.8,12.45 -21,20.4 -37.4,20.4 -16.4,0 -30.5,-7.95 -37.3,-20.4 -5.8,-11.32 -7.4,-21.52 -7.4,-51.53 z m 147.8,-1.13 c 0,-42.46 -6.3,-67.95 -21.6,-89.47 -17,-23.77 -45.3,-36.23 -81.5,-36.23 -36.3,0 -64.6,12.46 -81.6,36.23 -15.2,21.52 -21.4,47.01 -21.4,89.47 v 137.6 c 0,42.46 6.2,67.95 21.4,89.46 17,23.79 45.3,36.24 81.6,36.24 36.2,0 64.5,-12.45 81.5,-36.24 15.3,-21.51 21.6,-47 21.6,-89.46 v -137.6" /></g><g
         transform="scale(1.04659)"
         id="g214"><path
           id="path216"
           style="fill:#ffffff;fill-opacity:1;fill-rule:nonzero;stroke:none"
           d="m 16144.2,1438.45 82.9,153.63 h 61.8 l -78.5,-134.72 89.6,-236.56 h -62.9 l -62.3,175.34 -30.6,-51.77 V 1220.8 h -57.4 v 371.28 h 57.4 v -153.63" /></g><g
         transform="scale(1.06643)"
         id="g218"><path
           id="path220"
           style="fill:#ffffff;fill-opacity:1;fill-rule:nonzero;stroke:none"
           d="m 16189.6,1198.08 h -56.2 v 364.38 h 166.6 v -51.91 h -110.4 v -98.33 h 82 v -51.89 h -82 v -162.25" /></g><g
         transform="scale(1.07298)"
         id="g222"><path
           id="path224"
           style="fill:#ffffff;fill-opacity:1;fill-rule:nonzero;stroke:none"
           d="m 16300,1190.77 h -56 v 362.15 h 56 v -362.15" /></g><g
         transform="scale(1.08913)"
         id="g226"><path
           id="path228"
           style="fill:#ffffff;fill-opacity:1;fill-rule:nonzero;stroke:none"
           d="m 16230.5,1173.11 h -55.2 v 305.96 h -68.9 v 50.82 h 193.6 v -50.82 h -69.5 v -305.96" /></g><g
         transform="scale(1.1045)"
         id="g230"><path
           id="path232"
           style="fill:#ffffff;fill-opacity:1;fill-rule:nonzero;stroke:none"
           d="m 16231.5,1156.79 h -54.4 v 301.7 h -68 v 50.12 h 190.9 v -50.12 h -68.5 v -301.7" /></g><g
         transform="scale(1.1114)"
         id="g234"><path
           id="path236"
           style="fill:#ffffff;fill-opacity:1;fill-rule:nonzero;stroke:none"
           d="m 16300,1149.61 h -54 v 349.63 h 54 v -349.63" /></g><g
         transform="scale(1.12891)"
         id="g238"><path
           id="path240"
           style="fill:#ffffff;fill-opacity:1;fill-rule:nonzero;stroke:none"
           d="m 16300,1131.77 h -47.5 l -92.9,229.12 v -229.12 h -50.6 v 344.21 h 53.7 l 86.7,-214.18 v 214.18 h 50.6 v -344.21" /></g><g
         transform="scale(1.14593)"
         id="g242"><path
           id="path244"
           style="fill:#ffffff;fill-opacity:1;fill-rule:nonzero;stroke:none"
           d="m 16300,1283.24 v -168.27 h -27 l -9.7,28.97 c -17.2,-24.4 -36,-34.06 -63.5,-34.06 -31,0 -56.9,14.74 -70.1,39.65 -11.2,21.86 -14.8,43.72 -14.8,90.5 v 93.54 c 0,53.89 4.1,73.21 19.8,94.06 14.8,20.34 40.8,31.51 71.8,31.51 37,0 64.5,-15.76 79.8,-45.25 8.6,-16.77 12.1,-37.62 12.1,-70.16 h -52.3 c 0,46.79 -11.7,66.11 -40.2,66.11 -13.7,0 -25.4,-6.11 -31,-17.3 -6.1,-11.18 -7.6,-21.34 -7.6,-48.81 v -103.7 c 0,-27.97 1.5,-42.71 5.6,-55.42 5.6,-15.76 18.8,-25.42 35.6,-25.42 27.4,0 39.1,19.83 39.1,67.11 v 13.73 h -43.2 v 43.21 h 95.6" /></g></g></g></svg>