<svg xmlns="http://www.w3.org/2000/svg" xmlns:xlink="http://www.w3.org/1999/xlink" width="280.404" height="60.64" viewBox="0 0 280.404 60.64">
  <defs>
    <clipPath id="clip-path">
      <rect id="Rectangle_665" data-name="Rectangle 665" width="280.404" height="60.64" transform="translate(166.918 53.196)" fill="none"/>
    </clipPath>
    <clipPath id="clip-path-2">
      <rect id="Rectangle_664" data-name="Rectangle 664" width="280.5" height="61" transform="translate(166.918 53)" fill="none"/>
    </clipPath>
  </defs>
  <g id="Group_942" data-name="Group 942" transform="translate(-166.918 -53.196)">
    <g id="Group_941" data-name="Group 941" clip-path="url(#clip-path)">
      <g id="Group_940" data-name="Group 940" style="isolation: isolate">
        <g id="Group_939" data-name="Group 939">
          <g id="Group_938" data-name="Group 938" clip-path="url(#clip-path-2)">
            <path id="Path_2798" data-name="Path 2798" d="M203.6,78.67a.3.3,0,0,1-.248.294,13.32,13.32,0,0,0-3.37,1.357c-1.435.739-2.988.7-4.629,1.146a7.832,7.832,0,0,1-2.415.212,9.6,9.6,0,0,1-1.187-.13s1.063-1.759,1.719-2.7,1.145-.9,1.842-1.678a26.028,26.028,0,0,0,2.3-2.378c.9-1.188.862-1.188,1.6-1.636s1.109-.9,1.109-1.229c.409.491,1.518.408,1.518.408a4.355,4.355,0,0,1,.815,1.146,16.169,16.169,0,0,1,.738,3.235,8.255,8.255,0,0,1,.217,1.956m-13.552-.46a6.331,6.331,0,0,0-.361-1.228l2.658-1.465a7.268,7.268,0,0,0-.636.955,5.831,5.831,0,0,1-1.661,1.738m-1.28,7.8a5.647,5.647,0,0,0-1.192,2.415s-.377-1.2.991-3.071a8.477,8.477,0,0,0,1.239-2.193.554.554,0,0,0-.2-.645,2.343,2.343,0,0,1-1.084-1.77,4.2,4.2,0,0,0,2.664,1.533,14.142,14.142,0,0,1-2.416,3.731m-5.419-8.562c-1.63-.351-2.064-.619-2.6-.15,0,0,.145-.769,1.254-.7.821.056,2.411.748,4,.454,0,0-.356.887-2.658.392m23.884,1.316a18.58,18.58,0,0,0-1.884-4.913,10.139,10.139,0,0,1-1.228-2.663s.206-.149-.041-.562a2.618,2.618,0,0,0-.753-.821l.876-.459a.236.236,0,0,0,.124-.243.744.744,0,0,0-.4-.609.274.274,0,0,0-.243.006l-1.243.66c-.371-.242-.754-.392-1.011-.227-.439.273-.6.165-.9.33a1.664,1.664,0,0,1-.789.325c-.305,0-.738,0-.929.3s-.795.3-1.037.547-.769.381-.795.738a1.787,1.787,0,0,0,.077.65,30.025,30.025,0,0,0-2.745,1.78c-.284.212-.547.434-.795.656l-4.056,2.25a4.045,4.045,0,0,0-3.221-2.106,3.5,3.5,0,0,0-3.746,1.678c-2.725-.387-2.808,2.42-1.827,2.993a4,4,0,0,0,2.275.386,2.021,2.021,0,0,0,.171.563l-7.591,4.207a.706.706,0,0,1-.511.066c-1.672-.418-2.369.021-2.477,1.306-.119,1.394.712,1.91,1.053,1.951.268.031.773.134,1.212-.739a9.678,9.678,0,0,0,.563-1.63.939.939,0,0,1,.448-.573l7.6-4.175a1.1,1.1,0,0,1,.129.315,3.331,3.331,0,0,0,1.29,1.827s-.448.635-1,1.311c-.717.872-.6,2.415.16,3.911s1.827,1.864,2.6,3.009a16.7,16.7,0,0,1,2.745,5.166c.78,2.74,1.642,3.85,1.559,5.734a15,15,0,0,0,.041,3.849c.047.372.088.795.119,1.249a44.247,44.247,0,0,0,12.442-6.492,16.428,16.428,0,0,0-.722-2.049,36.788,36.788,0,0,1-2.291-6.146c-.387-1.863-.717-3.788-1.032-4.758a10.918,10.918,0,0,0-1.745-3.2,4.84,4.84,0,0,1,2.415,1.934c.388-.381.542-.479,1.058-.939.6-.537,1.27-1.1,1.548-1.326a.277.277,0,0,0,.1-.274l-.015-.093a.3.3,0,0,1,.129-.3c.563-.355,2.457-1.569,3.36-2.229,1.063-.779,1.228-1.022.939-2.173" fill="#fff"/>
            <path id="Path_2799" data-name="Path 2799" d="M225.165,64.076c-6.914-9.848-24.859-8.132-40.08,3.834-.259.2-.513.407-.766.613,15.4-9.008,28.844-11.591,34.794-3.117,6.058,8.629-.024,24.265-13.585,34.926s-29.465,12.307-35.523,3.678c-2.075-2.956-2.725-6.736-2.138-10.856a15.807,15.807,0,0,0,1.753,14.309c6.914,9.849,25.282,8.077,40.5-3.889s21.956-29.651,15.042-39.5" fill="#fff"/>
            <path id="Path_2800" data-name="Path 2800" d="M169.889,82.576a58.233,58.233,0,0,1,12.485-14.4c16.188-13.6,35.787-16.023,43.775-5.409a16.941,16.941,0,0,1,3.174,7.957A15.174,15.174,0,0,0,226.18,59.4c-7.707-10.239-27.056-7.533-43.218,6.046a49.563,49.563,0,0,0-13.073,17.125" fill="#fff"/>
            <path id="Path_2801" data-name="Path 2801" d="M250.034,82.562a12.529,12.529,0,0,1-.2,2.712c-.348,1.392-1.1,2.068-2.286,2.068a2.115,2.115,0,0,1-2.021-1.305,9.541,9.541,0,0,1-.361-3.3V75.146c0-1.838.1-2.457.519-3.165a1.97,1.97,0,0,1,1.863-.994c1.6,0,2.415,1.25,2.415,3.715v.73h4.024V74.5c0-4.589-2.407-7.329-6.439-7.329a5.966,5.966,0,0,0-5.024,2.222c-1.1,1.488-1.382,2.82-1.382,6.475v6.393c0,3.451.243,4.795,1.13,6.251a5.884,5.884,0,0,0,5.31,2.651c4.257,0,6.508-2.7,6.508-7.807V82.315h-4.053Z" fill="#fff"/>
            <path id="Path_2802" data-name="Path 2802" d="M263.184,67.51H259.16V90.818h11.033v-3.75h-7.009Z" fill="#fff"/>
            <path id="Path_2803" data-name="Path 2803" d="M282.545,83.8c0,2.942-.9,3.545-2.245,3.545-1.407,0-2.279-.592-2.279-3.545V67.511H274V83.216c0,2.925.352,4.44,1.349,5.791a6.736,6.736,0,0,0,9.874,0c1-1.351,1.348-2.865,1.348-5.79V67.511h-4.024Z" fill="#fff"/>
            <path id="Path_2804" data-name="Path 2804" d="M296.028,76.811h-1.014V71.26H296.1a3.394,3.394,0,0,1,2.46.651,2.6,2.6,0,0,1,.776,1.937c0,1.8-1.3,2.963-3.3,2.963m-1.014,3.75h1.014a3.438,3.438,0,0,1,3.783,3.544c0,1.911-1.161,2.963-3.271,2.963h-1.526Zm5.181-1.938a4.914,4.914,0,0,0,3.23-5.083c0-3.832-2.522-6.029-6.918-6.029H290.99V90.818h5.961c4.4,0,7.021-2.509,7.021-6.713,0-2.891-1.106-4.523-3.777-5.482" fill="#fff"/>
            <path id="Path_2805" data-name="Path 2805" d="M325.931,82.562a12.529,12.529,0,0,1-.2,2.712c-.348,1.392-1.1,2.068-2.287,2.068a2.114,2.114,0,0,1-2.02-1.305,9.542,9.542,0,0,1-.361-3.3V75.146c0-1.838.1-2.457.518-3.165a1.972,1.972,0,0,1,1.863-.994c1.6,0,2.416,1.25,2.416,3.715v.73h4.024V74.5c0-4.589-2.408-7.329-6.44-7.329a5.964,5.964,0,0,0-5.023,2.222c-1.1,1.488-1.382,2.82-1.382,6.475v6.393c0,3.451.243,4.795,1.13,6.251a5.884,5.884,0,0,0,5.31,2.651c4.257,0,6.507-2.7,6.507-7.807V82.315h-4.052Z" fill="#fff"/>
            <path id="Path_2806" data-name="Path 2806" d="M343.64,77.016h-4.524v-9.5h-4.024V90.818h4.024V80.766h4.524V90.818h4.024V67.511H343.64Z" fill="#fff"/>
            <path id="Path_2807" data-name="Path 2807" d="M360.65,82.11h-3.126l1.549-8.573Zm-4.18-14.6L352,90.818h3.966l.923-4.958h4.439l.958,4.958h4.138L361.7,67.511Z" fill="#fff"/>
            <path id="Path_2808" data-name="Path 2808" d="M379.072,80.923,376.127,67.51h-5.615V90.818h3.852V75.951l3.482,14.868h2.381l3.517-14.886V90.818H387.6V67.51h-5.547Z" fill="#fff"/>
            <path id="Path_2809" data-name="Path 2809" d="M395.868,71.26h1.288c2.7,0,3.476.734,3.476,3.271,0,2.564-.779,3.305-3.476,3.305h-1.288Zm2.074-3.749h-6.1V90.818h4.023V81.586h2.074c2.362,0,3.845-.461,4.959-1.539,1.291-1.218,1.891-2.97,1.891-5.516,0-2.487-.618-4.281-1.889-5.48-1.116-1.08-2.6-1.54-4.961-1.54" fill="#fff"/>
            <rect id="Rectangle_660" data-name="Rectangle 660" width="4.024" height="23.308" transform="translate(408.973 67.51)" fill="#fff"/>
            <path id="Path_2810" data-name="Path 2810" d="M421.577,75.078a6.027,6.027,0,0,1,.414-2.992,2.436,2.436,0,0,1,4.071,0c.345.66.415,1.164.415,3V83.25c0,1.831-.07,2.335-.413,2.991a2.436,2.436,0,0,1-4.069.008,6.012,6.012,0,0,1-.418-3Zm2.45-7.91a5.97,5.97,0,0,0-5.128,2.294c-.955,1.345-1.346,2.953-1.346,5.547v8.309c0,2.6.391,4.2,1.347,5.548a6.878,6.878,0,0,0,10.255,0c.956-1.344,1.346-2.952,1.346-5.547V75.009c0-2.594-.39-4.2-1.346-5.547a5.968,5.968,0,0,0-5.128-2.294" fill="#fff"/>
            <path id="Path_2811" data-name="Path 2811" d="M443.47,67.51V80.662L438.146,67.51H434.17V90.818h3.852V76.673l5.735,14.146h3.565V67.51Z" fill="#fff"/>
            <path id="Path_2812" data-name="Path 2812" d="M266.028,103.73h-2.289v2.06h2.289Zm-.121-3.217h-2.168v2.012h2.168Zm.29,6.554h-3.916V99.236H266.2c.855,0,1.156.458,1.156,1.326v1.662a.934.934,0,0,1-.362.843c.35.157.495.482.495,1v1.711a1.2,1.2,0,0,1-1.289,1.289" fill="#fff"/>
            <path id="Path_2813" data-name="Path 2813" d="M270.013,99.236h4.566v1.3h-3.108v1.975h2.2v1.278h-2.2v1.975h3.108v1.3h-4.566Z" fill="#fff"/>
            <path id="Path_2814" data-name="Path 2814" d="M278.793,100.562h-1.952V99.236h5.374v1.326h-1.952v6.505h-1.47Z" fill="#fff"/>
            <path id="Path_2815" data-name="Path 2815" d="M286.213,100.562h-1.952V99.236h5.374v1.326h-1.952v6.505h-1.47Z" fill="#fff"/>
            <path id="Path_2816" data-name="Path 2816" d="M292.042,99.236h4.566v1.3H293.5v1.975h2.2v1.278h-2.2v1.975h3.108v1.3h-4.566Z" fill="#fff"/>
            <path id="Path_2817" data-name="Path 2817" d="M302.822,100.574h-2.277v2.782h2.277Zm-3.735,6.493V99.236h4.085c.783,0,1.084.434,1.084,1.326V103.4c0,.7-.229,1.085-.783,1.181l.843,2.482h-1.458l-.8-2.434h-1.517v2.434Z" fill="#fff"/>
            <path id="Path_2818" data-name="Path 2818" d="M311.373,99.236h4.663v1.325h-3.205V102.9h2.349v1.3h-2.349v2.868h-1.458Z" fill="#fff"/>
            <rect id="Rectangle_661" data-name="Rectangle 661" width="1.458" height="7.831" transform="translate(318.492 99.236)" fill="#fff"/>
            <path id="Path_2819" data-name="Path 2819" d="M324.334,100.562h-1.952V99.236h5.374v1.326H325.8v6.505h-1.47Z" fill="#fff"/>
            <rect id="Rectangle_662" data-name="Rectangle 662" width="1.47" height="1.313" transform="translate(329.2 105.754)" fill="#fff"/>
            <path id="Path_2820" data-name="Path 2820" d="M337.534,99.236h1.458v6.493h3.181v1.338h-4.638Z" fill="#fff"/>
            <path id="Path_2821" data-name="Path 2821" d="M348.568,100.574H346.1v5.156h2.47Zm-3.9,5.143v-5.24c0-.843.433-1.241,1.168-1.241h2.988c.892,0,1.193.518,1.193,1.446v4.964a1.27,1.27,0,0,1-1.313,1.421H345.93a1.2,1.2,0,0,1-1.265-1.35" fill="#fff"/>
            <path id="Path_2822" data-name="Path 2822" d="M352.325,99.236h1.494l.916,6.374h.072l1.037-6.374h1.783l1.109,6.374h.072l.9-6.374h1.47l-1.386,7.831h-1.988l-1.024-6h-.073l-.988,6h-1.987Z" fill="#fff"/>
            <path id="Path_2823" data-name="Path 2823" d="M363.5,99.236h4.566v1.3H364.96v1.975h2.2v1.278h-2.2v1.975h3.108v1.3H363.5Z" fill="#fff"/>
            <path id="Path_2824" data-name="Path 2824" d="M374.294,100.574h-2.276v2.782h2.276Zm-3.734,6.493V99.236h4.084c.783,0,1.084.434,1.084,1.326V103.4c0,.7-.228,1.085-.783,1.181l.844,2.482h-1.458l-.795-2.434h-1.518v2.434Z" fill="#fff"/>
            <path id="Path_2825" data-name="Path 2825" d="M387.942,105.646c0,.867-.433,1.421-1.289,1.421h-2.614a1.208,1.208,0,0,1-1.277-1.361v-1.277h1.445v1.337h2.3V104.26l-3.061-1.241a1.036,1.036,0,0,1-.686-1.145v-1.457c0-.844.434-1.181,1.216-1.181H386.7c.952,0,1.241.482,1.241,1.446v1.071h-1.433v-1.216h-2.3v1.313l3.085,1.241c.506.229.65.507.65,1.157Z" fill="#fff"/>
            <path id="Path_2826" data-name="Path 2826" d="M395.686,104.079v1.59c0,.771-.326,1.4-1.3,1.4h-2.6a1.215,1.215,0,0,1-1.314-1.385v-5.121c0-.952.434-1.325,1.229-1.325h2.712c.975,0,1.276.482,1.276,1.446v1.108H394.24v-1.216H391.9v5.156h2.337v-1.651Z" fill="#fff"/>
            <path id="Path_2827" data-name="Path 2827" d="M402.143,100.574h-2.47v5.156h2.47Zm-3.9,5.143v-5.24c0-.843.434-1.241,1.169-1.241h2.987c.892,0,1.194.518,1.194,1.446v4.964a1.27,1.27,0,0,1-1.314,1.421H399.5a1.2,1.2,0,0,1-1.265-1.35" fill="#fff"/>
            <path id="Path_2828" data-name="Path 2828" d="M409.838,100.574h-2.277v2.782h2.277Zm-3.735,6.493V99.236h4.085c.782,0,1.084.434,1.084,1.326V103.4c0,.7-.229,1.085-.783,1.181l.843,2.482h-1.457l-.8-2.434h-1.518v2.434Z" fill="#fff"/>
            <path id="Path_2829" data-name="Path 2829" d="M413.932,99.236H418.5v1.3H415.39v1.975h2.2v1.278h-2.2v1.975H418.5v1.3h-4.566Z" fill="#fff"/>
            <path id="Path_2830" data-name="Path 2830" d="M426.182,105.646c0,.867-.433,1.421-1.289,1.421h-2.614A1.208,1.208,0,0,1,421,105.706v-1.277h1.446v1.337h2.3V104.26l-3.061-1.241a1.036,1.036,0,0,1-.686-1.145v-1.457c0-.844.434-1.181,1.217-1.181h2.722c.953,0,1.241.482,1.241,1.446v1.071h-1.433v-1.216h-2.3v1.313l3.084,1.241c.506.229.65.507.65,1.157Z" fill="#fff"/>
            <rect id="Rectangle_663" data-name="Rectangle 663" width="1.47" height="1.313" transform="translate(428.771 105.754)" fill="#fff"/>
          </g>
        </g>
      </g>
    </g>
  </g>
</svg>
